<svg width="200" height="124" viewBox="0 0 200 124" fill="none" xmlns="http://www.w3.org/2000/svg">
<mask id="mask0_153_1627" style="mask-type:luminance" maskUnits="userSpaceOnUse" x="16" y="16" width="168" height="92">
<path d="M138.694 16.6074H61.3066C36.3289 16.6074 16.0804 36.8559 16.0804 61.8336C16.0804 86.8113 36.3289 107.06 61.3066 107.06H138.694C163.671 107.06 183.92 86.8113 183.92 61.8336C183.92 36.8559 163.671 16.6074 138.694 16.6074Z" fill="white"/>
</mask>
<g mask="url(#mask0_153_1627)">
<path d="M138.694 18.8687H61.3066C37.5778 18.8687 18.3418 38.1047 18.3418 61.8335C18.3418 85.5623 37.5778 104.798 61.3066 104.798H138.694C162.422 104.798 181.658 85.5623 181.658 61.8335C181.658 38.1047 162.422 18.8687 138.694 18.8687Z" stroke="#1D1A19" stroke-width="0.5"/>
<path d="M174.874 54.7983L176.218 59.5064L180.967 58.3159L177.562 61.8335L180.967 65.3511L176.218 64.1606L174.874 68.8687L173.531 64.1606L168.782 65.3511L172.187 61.8335L168.782 58.3159L173.531 59.5064L174.874 54.7983Z" fill="#1D1A19"/>
<path d="M25.1257 54.7983L26.4694 59.5064L31.2184 58.3159L27.813 61.8335L31.2184 65.3511L26.4694 64.1606L25.1257 68.8687L23.7821 64.1606L19.0331 65.3511L22.4385 61.8335L19.0331 58.3159L23.7821 59.5064L25.1257 54.7983Z" fill="#1D1A19"/>
<path d="M45.2262 45.7529H155.779" stroke="#1D1A19" stroke-linecap="round"/>
<path d="M65.3267 89.9741H135.678" stroke="#1D1A19" stroke-width="0.5" stroke-linecap="round"/>
<path d="M45.2262 47.7632H155.779" stroke="#1D1A19" stroke-width="0.351759" stroke-linecap="round"/>
<path d="M135.679 21.7832H64.3217C42.2026 21.7832 24.2715 39.7143 24.2715 61.8335C24.2715 83.9526 42.2026 101.884 64.3217 101.884H135.679C157.798 101.884 175.729 83.9526 175.729 61.8335C175.729 39.7143 157.798 21.7832 135.679 21.7832Z" stroke="#1D1A19"/>
<path d="M88.738 97.0577C88.5933 97.0577 88.4586 97.0336 88.334 96.9853C88.2094 96.933 88.1089 96.8547 88.0325 96.7501C87.9601 96.6456 87.924 96.513 87.924 96.3521C87.924 96.2235 87.9561 96.129 88.0204 96.0687C88.0888 96.0084 88.1591 95.9783 88.2315 95.9783C88.3038 95.9783 88.3682 96.0024 88.4245 96.0506C88.4848 96.0949 88.5149 96.1572 88.5149 96.2376C88.5149 96.2818 88.5049 96.32 88.4848 96.3521C88.4647 96.3843 88.4446 96.4145 88.4245 96.4426C88.4003 96.4748 88.3762 96.5049 88.3521 96.5331C88.328 96.5612 88.3159 96.5974 88.3159 96.6416C88.3159 96.718 88.3541 96.7803 88.4305 96.8285C88.5109 96.8768 88.6074 96.9009 88.7199 96.9009C88.8486 96.9009 88.9571 96.8627 89.0456 96.7863C89.138 96.7059 89.1842 96.5813 89.1842 96.4124C89.1842 96.3039 89.1561 96.2014 89.0998 96.1049C89.0476 96.0044 88.9832 95.9039 88.9069 95.8034C88.8224 95.6828 88.742 95.5602 88.6657 95.4356C88.5893 95.3109 88.5511 95.1702 88.5511 95.0135C88.5511 94.8728 88.5873 94.7521 88.6596 94.6516C88.736 94.5511 88.8365 94.4728 88.9611 94.4165C89.0858 94.3602 89.2245 94.332 89.3772 94.332C89.5662 94.332 89.731 94.3763 89.8717 94.4647C90.0164 94.5532 90.0888 94.6838 90.0888 94.8567C90.0888 94.9371 90.0667 95.0054 90.0224 95.0617C89.9822 95.114 89.9199 95.1401 89.8355 95.1401C89.7471 95.1401 89.6827 95.116 89.6425 95.0677C89.6023 95.0195 89.5822 94.9612 89.5822 94.8928C89.5822 94.8808 89.5822 94.8667 89.5822 94.8506C89.5863 94.8346 89.5903 94.8185 89.5943 94.8024C89.5983 94.7863 89.6023 94.7702 89.6064 94.7542C89.6104 94.7341 89.6124 94.718 89.6124 94.7059C89.6124 94.6376 89.5843 94.5833 89.528 94.5431C89.4757 94.5029 89.4094 94.4828 89.329 94.4828C89.2486 94.4828 89.1722 94.5129 89.0998 94.5733C89.0275 94.6295 88.9913 94.724 88.9913 94.8567C88.9913 94.9652 89.0234 95.0738 89.0878 95.1823C89.1561 95.2868 89.2265 95.3893 89.2988 95.4898C89.3913 95.6064 89.4697 95.723 89.534 95.8396C89.6023 95.9521 89.6365 96.0949 89.6365 96.2677C89.6365 96.4406 89.5923 96.5873 89.5038 96.7079C89.4194 96.8245 89.3069 96.9129 89.1662 96.9732C89.0295 97.0295 88.8868 97.0577 88.738 97.0577ZM90.7952 97.0577C90.6706 97.0577 90.5781 97.0135 90.5178 96.925C90.4615 96.8325 90.4575 96.722 90.5058 96.5934L91.163 94.9411C91.1992 94.8486 91.2093 94.7863 91.1932 94.7542C91.1811 94.722 91.163 94.7059 91.1389 94.7059C91.0987 94.7059 91.0364 94.7461 90.952 94.8265C90.8716 94.9029 90.7852 94.9994 90.6927 95.116C90.6002 95.2285 90.5178 95.3411 90.4455 95.4537L90.3369 95.3873C90.5862 95.0295 90.7952 94.7642 90.9641 94.5913C91.1329 94.4185 91.2997 94.332 91.4646 94.332C91.5932 94.332 91.6816 94.3803 91.7299 94.4768C91.7821 94.5692 91.7781 94.6918 91.7178 94.8446L91.0907 96.4305C91.0545 96.519 91.0445 96.5833 91.0605 96.6235C91.0766 96.6637 91.1007 96.6838 91.1329 96.6838C91.1731 96.6838 91.2314 96.6476 91.3078 96.5753C91.3882 96.5029 91.4746 96.4104 91.5671 96.2979C91.6635 96.1813 91.754 96.0587 91.8384 95.93L91.953 96.0024C91.6957 96.3722 91.4746 96.6416 91.2897 96.8104C91.1048 96.9753 90.9399 97.0577 90.7952 97.0577ZM91.9108 93.6567C91.8103 93.6567 91.7198 93.6165 91.6394 93.5361C91.559 93.4557 91.5188 93.3632 91.5188 93.2587C91.5188 93.1461 91.559 93.0496 91.6394 92.9692C91.7198 92.8888 91.8103 92.8486 91.9108 92.8486C92.0274 92.8486 92.1238 92.8888 92.2002 92.9692C92.2806 93.0496 92.3208 93.1461 92.3208 93.2587C92.3208 93.3632 92.2806 93.4557 92.2002 93.5361C92.1198 93.6165 92.0234 93.6567 91.9108 93.6567ZM92.203 97.0758L93.0593 94.929C93.0915 94.8486 93.1015 94.7924 93.0895 94.7602C93.0814 94.728 93.0613 94.7119 93.0292 94.7119C92.989 94.7119 92.9267 94.7521 92.8422 94.8326C92.7618 94.9089 92.6754 95.0054 92.5829 95.122C92.4905 95.2346 92.4081 95.3471 92.3357 95.4597L92.2272 95.3873C92.4724 95.0336 92.6814 94.7702 92.8543 94.5974C93.0272 94.4245 93.192 94.3381 93.3488 94.3381C93.4774 94.3381 93.5679 94.3863 93.6201 94.4828C93.6724 94.5753 93.6644 94.6979 93.596 94.8506L93.1618 95.8999H93.1799C93.2483 95.7873 93.3307 95.6627 93.4272 95.526C93.5236 95.3853 93.6282 95.2466 93.7407 95.1099C93.8573 94.9692 93.9799 94.8406 94.1086 94.724C94.2372 94.6074 94.3679 94.513 94.5005 94.4406C94.6372 94.3682 94.7699 94.332 94.8985 94.332C95.0392 94.332 95.1317 94.3823 95.1759 94.4828C95.2241 94.5833 95.2161 94.7059 95.1518 94.8506L94.4644 96.4547C94.4362 96.531 94.4282 96.5893 94.4402 96.6295C94.4523 96.6657 94.4784 96.6838 94.5186 96.6838C94.5628 96.6838 94.6231 96.6476 94.6995 96.5753C94.7799 96.5029 94.8664 96.4104 94.9588 96.2979C95.0553 96.1813 95.1458 96.0587 95.2302 95.93L95.3387 96.0024C95.0855 96.3722 94.8664 96.6416 94.6814 96.8104C94.4965 96.9753 94.3297 97.0577 94.1809 97.0577C94.0443 97.0577 93.9498 97.0094 93.8975 96.913C93.8493 96.8124 93.8593 96.6818 93.9277 96.521L94.5789 94.9954C94.6111 94.919 94.6191 94.8607 94.603 94.8205C94.591 94.7763 94.5568 94.7542 94.5005 94.7542C94.4242 94.7542 94.3136 94.8145 94.1689 94.9351C94.0242 95.0516 93.8634 95.2145 93.6865 95.4235C93.5096 95.6325 93.3367 95.8738 93.1679 96.1471C93.003 96.4165 92.8644 96.7039 92.7518 97.0094L92.203 97.0758ZM96.1184 97.0577C95.9657 97.0577 95.837 97.0074 95.7325 96.9069C95.632 96.8064 95.5817 96.6597 95.5817 96.4667C95.5817 96.2456 95.6239 96.0305 95.7084 95.8215C95.7968 95.6125 95.9094 95.4175 96.0461 95.2366C96.1827 95.0557 96.3255 94.8969 96.4742 94.7602C96.6229 94.6275 96.7717 94.523 96.9204 94.4466C97.0692 94.3702 97.2039 94.332 97.3245 94.332C97.4812 94.332 97.5978 94.3743 97.6742 94.4587C97.7546 94.5431 97.7948 94.6436 97.7948 94.7602C97.7948 94.8486 97.7747 94.919 97.7345 94.9712C97.6943 95.0235 97.634 95.0496 97.5536 95.0496C97.4571 95.0496 97.3968 95.0275 97.3727 94.9833C97.3486 94.9351 97.3325 94.8808 97.3245 94.8205C97.3164 94.7682 97.3023 94.726 97.2822 94.6939C97.2662 94.6577 97.224 94.6396 97.1556 94.6396C97.0511 94.6396 96.9385 94.6758 96.8179 94.7481C96.6973 94.8205 96.5827 94.923 96.4742 95.0557C96.3657 95.1883 96.2752 95.3431 96.2028 95.52C96.1345 95.6928 96.1003 95.8838 96.1003 96.0928C96.1003 96.2979 96.1345 96.4366 96.2028 96.5089C96.2752 96.5773 96.3596 96.6114 96.4561 96.6114C96.5888 96.6114 96.7295 96.5532 96.8782 96.4366C97.031 96.32 97.1797 96.1491 97.3245 95.924L97.439 95.9903C97.3345 96.1672 97.2119 96.3381 97.0712 96.5029C96.9305 96.6637 96.7777 96.7964 96.6129 96.9009C96.4521 97.0054 96.2873 97.0577 96.1184 97.0577ZM98.2382 97.0577C98.0613 97.0577 97.9327 96.9994 97.8523 96.8828C97.7719 96.7622 97.7317 96.6155 97.7317 96.4426C97.7317 96.2135 97.7739 95.9903 97.8583 95.7733C97.9468 95.5562 98.0613 95.3552 98.202 95.1702C98.3468 94.9813 98.5015 94.8185 98.6664 94.6818C98.799 94.5733 98.9357 94.4888 99.0764 94.4285C99.2211 94.3642 99.3578 94.332 99.4865 94.332C99.6272 94.332 99.7317 94.3662 99.8 94.4346C99.8724 94.5029 99.9086 94.5853 99.9086 94.6818C99.9086 94.8225 99.8503 94.9652 99.7337 95.1099C99.6171 95.2547 99.4302 95.3853 99.1729 95.5019C98.9156 95.6145 98.5719 95.6969 98.1417 95.7491L98.1598 95.5923C98.4372 95.5722 98.6664 95.518 98.8473 95.4295C99.0322 95.3371 99.1689 95.2346 99.2573 95.122C99.3498 95.0094 99.396 94.9089 99.396 94.8205C99.396 94.6999 99.3357 94.6396 99.2151 94.6396C99.1146 94.6396 99.0081 94.6778 98.8955 94.7542C98.787 94.8305 98.6824 94.9371 98.5819 95.0738C98.4855 95.2064 98.4051 95.3612 98.3407 95.5381C98.2804 95.715 98.2503 95.9059 98.2503 96.1109C98.2503 96.2677 98.2764 96.3923 98.3287 96.4848C98.385 96.5733 98.4774 96.6175 98.6061 96.6175C98.6905 96.6175 98.7809 96.5913 98.8774 96.5391C98.9779 96.4828 99.0784 96.4024 99.1789 96.2979C99.2794 96.1934 99.3719 96.0647 99.4563 95.9119L99.5709 95.9843C99.4623 96.1773 99.3297 96.3562 99.1729 96.521C99.0201 96.6818 98.8613 96.8124 98.6965 96.913C98.5317 97.0094 98.3789 97.0577 98.2382 97.0577ZM100.766 97.0094L100.814 96.8888L101.122 96.8285C101.222 96.8084 101.303 96.7903 101.363 96.7743C101.427 96.7582 101.478 96.7361 101.514 96.7079C101.55 96.6758 101.58 96.6376 101.604 96.5934C101.632 96.5451 101.66 96.4848 101.689 96.4124L102.907 93.4034C102.927 93.3511 102.929 93.313 102.913 93.2888C102.901 93.2607 102.858 93.2486 102.786 93.2527L102.31 93.2707L102.37 93.126L103.811 92.8969L102.394 96.4124C102.354 96.5089 102.33 96.5833 102.322 96.6356C102.318 96.6878 102.338 96.728 102.382 96.7562C102.43 96.7803 102.511 96.8044 102.623 96.8285L102.889 96.8888L102.84 97.0094H100.766ZM106.147 92.8908C106.464 92.8908 106.7 92.9753 106.852 93.1441C107.005 93.3089 107.082 93.52 107.082 93.7773C107.082 93.8939 107.065 94.0185 107.033 94.1511C107.001 94.2798 106.957 94.4104 106.901 94.5431C106.748 94.921 106.553 95.2647 106.316 95.5743C106.079 95.8838 105.813 96.1511 105.52 96.3763C105.226 96.5974 104.915 96.7682 104.585 96.8888C104.259 97.0054 103.928 97.0637 103.59 97.0637L103.62 96.9612C103.954 96.9089 104.253 96.8084 104.519 96.6597C104.784 96.5109 105.021 96.324 105.23 96.0989C105.439 95.8697 105.622 95.6185 105.779 95.3451C105.94 95.0677 106.083 94.7783 106.207 94.4768C106.292 94.2637 106.352 94.0788 106.388 93.922C106.424 93.7652 106.442 93.6285 106.442 93.5119C106.442 93.3753 106.408 93.2707 106.34 93.1984C106.276 93.126 106.189 93.0898 106.081 93.0898C105.92 93.0898 105.767 93.1441 105.622 93.2527C105.478 93.3572 105.351 93.4959 105.242 93.6687C105.134 93.8416 105.047 94.0225 104.983 94.2114C104.923 94.3964 104.893 94.5712 104.893 94.7361C104.893 94.8888 104.925 95.0054 104.989 95.0858C105.053 95.1662 105.142 95.2064 105.254 95.2064C105.391 95.2064 105.528 95.1642 105.664 95.0798C105.801 94.9913 105.926 94.8748 106.038 94.73C106.155 94.5853 106.245 94.4265 106.31 94.2537L106.237 94.7481C106.189 94.8808 106.099 95.0014 105.966 95.1099C105.837 95.2185 105.689 95.3049 105.52 95.3692C105.355 95.4295 105.186 95.4597 105.013 95.4597C104.736 95.4597 104.535 95.3853 104.41 95.2366C104.286 95.0878 104.223 94.9049 104.223 94.6878C104.223 94.4506 104.271 94.2255 104.368 94.0124C104.468 93.7954 104.607 93.6024 104.784 93.4336C104.965 93.2647 105.172 93.132 105.405 93.0356C105.638 92.9391 105.886 92.8908 106.147 92.8908ZM106.39 97.0094L106.426 96.913L107.922 95.7069C108.066 95.5903 108.211 95.4657 108.356 95.3331C108.505 95.2004 108.643 95.0637 108.772 94.923C108.901 94.7823 109.015 94.6396 109.116 94.4949C109.216 94.3501 109.295 94.2054 109.351 94.0607C109.411 93.912 109.441 93.7692 109.441 93.6326C109.441 93.4557 109.399 93.325 109.315 93.2406C109.234 93.1562 109.1 93.114 108.911 93.114C108.81 93.114 108.71 93.13 108.609 93.1622C108.513 93.1944 108.434 93.2346 108.374 93.2828C108.314 93.331 108.284 93.3833 108.284 93.4396C108.284 93.4918 108.29 93.5361 108.302 93.5723C108.318 93.6044 108.334 93.6386 108.35 93.6748C108.366 93.7069 108.374 93.7511 108.374 93.8074C108.374 93.8959 108.334 93.9682 108.253 94.0245C108.177 94.0768 108.091 94.1029 107.994 94.1029C107.922 94.1029 107.853 94.0828 107.789 94.0426C107.725 93.9984 107.693 93.92 107.693 93.8074C107.693 93.6627 107.735 93.5341 107.819 93.4215C107.904 93.3049 108.016 93.2084 108.157 93.132C108.298 93.0557 108.452 92.9974 108.621 92.9572C108.794 92.917 108.967 92.8969 109.14 92.8969C109.341 92.8969 109.518 92.925 109.67 92.9813C109.823 93.0376 109.942 93.12 110.026 93.2285C110.115 93.3371 110.159 93.4738 110.159 93.6386C110.159 93.7913 110.121 93.9421 110.044 94.0908C109.972 94.2396 109.873 94.3843 109.749 94.525C109.624 94.6657 109.484 94.8024 109.327 94.9351C109.174 95.0677 109.015 95.1964 108.85 95.321C108.686 95.4456 108.527 95.5642 108.374 95.6768L107.427 96.3944H108.754C108.83 96.3944 108.893 96.3823 108.941 96.3582C108.993 96.3341 109.043 96.2979 109.092 96.2496C109.144 96.1974 109.202 96.131 109.266 96.0506L109.375 95.9059H109.496L108.844 97.0094H106.39ZM110.812 97.0637C110.479 97.0637 110.225 97.0014 110.052 96.8768C109.884 96.7521 109.799 96.5712 109.799 96.3341C109.799 96.2376 109.827 96.1451 109.884 96.0567C109.944 95.9682 110.026 95.924 110.131 95.924C110.255 95.924 110.34 95.9542 110.384 96.0145C110.428 96.0748 110.45 96.131 110.45 96.1833C110.45 96.2557 110.432 96.314 110.396 96.3582C110.36 96.4024 110.324 96.4426 110.288 96.4788C110.251 96.515 110.233 96.5532 110.233 96.5934C110.233 96.6778 110.269 96.7421 110.342 96.7863C110.418 96.8305 110.517 96.8527 110.637 96.8527C110.907 96.8527 111.144 96.7944 111.349 96.6778C111.554 96.5612 111.715 96.4004 111.831 96.1954C111.948 95.9903 112.006 95.7572 112.006 95.4959C112.006 95.3431 111.96 95.2044 111.867 95.0798C111.775 94.9552 111.63 94.8908 111.433 94.8868L111.065 94.9954L111.017 94.8748L111.252 94.7783C111.385 94.726 111.524 94.6597 111.668 94.5793C111.817 94.4949 111.956 94.3984 112.085 94.2898C112.213 94.1813 112.318 94.0587 112.398 93.922C112.483 93.7853 112.525 93.6366 112.525 93.4758C112.525 93.3552 112.491 93.2587 112.422 93.1863C112.358 93.114 112.247 93.0778 112.091 93.0778C111.93 93.0778 111.803 93.1059 111.711 93.1622C111.618 93.2185 111.572 93.2808 111.572 93.3491C111.572 93.4094 111.588 93.4617 111.62 93.5059C111.656 93.5501 111.675 93.6104 111.675 93.6868C111.675 93.7753 111.636 93.8456 111.56 93.8979C111.484 93.9501 111.399 93.9763 111.307 93.9763C111.23 93.9763 111.16 93.9522 111.096 93.9039C111.031 93.8517 110.999 93.7773 110.999 93.6808C110.999 93.5562 111.035 93.4456 111.108 93.3491C111.184 93.2527 111.287 93.1702 111.415 93.1019C111.544 93.0336 111.685 92.9833 111.837 92.9511C111.99 92.915 112.145 92.8969 112.302 92.8969C112.579 92.8969 112.8 92.9592 112.965 93.0838C113.134 93.2084 113.218 93.3632 113.218 93.5481C113.218 93.6848 113.184 93.8094 113.116 93.922C113.047 94.0305 112.955 94.127 112.838 94.2114C112.726 94.2959 112.601 94.3702 112.464 94.4346C112.328 94.4949 112.191 94.5471 112.054 94.5913L112.048 94.6034C112.278 94.6275 112.458 94.716 112.591 94.8687C112.728 95.0215 112.796 95.2024 112.796 95.4114C112.796 95.6808 112.736 95.918 112.615 96.123C112.495 96.328 112.336 96.5009 112.139 96.6416C111.946 96.7783 111.733 96.8828 111.5 96.9552C111.27 97.0275 111.041 97.0637 110.812 97.0637Z" fill="#1D1A19"/>
<path d="M62.8241 42.9185L62.4221 43.2174H65.4313L65.0294 42.9185C64.7958 42.7468 64.6481 42.6094 64.5863 42.5063C64.5175 42.4101 64.4831 42.2555 64.4831 42.0426C64.4831 41.8364 64.4797 41.7231 64.4729 41.7025V41.5273V31.8917V31.7165C64.4797 31.6959 64.4831 31.5826 64.4831 31.3764C64.4831 31.1635 64.5175 31.0089 64.5863 30.9127C64.6481 30.8096 64.7958 30.6722 65.0294 30.5005L65.6168 30.0677H62.2366L62.8241 30.5005C63.0508 30.6722 63.2018 30.8096 63.2774 30.9127C63.3393 31.0157 63.3702 31.1703 63.3702 31.3764C63.3771 31.452 63.3805 31.5654 63.3805 31.7165V31.8917V41.5273V41.7025C63.3805 41.8536 63.3771 41.967 63.3702 42.0426C63.3702 42.2555 63.3393 42.4101 63.2774 42.5063C63.2224 42.5956 63.0714 42.733 62.8241 42.9185ZM53.1885 42.9185L52.7866 43.2174H55.7957L55.3938 42.9185C55.1602 42.7468 55.0125 42.6094 54.9507 42.5063C54.8819 42.4101 54.8476 42.2555 54.8476 42.0426V41.8158C54.8407 41.7952 54.8373 41.7574 54.8373 41.7025V41.5273V31.8917V31.7165C54.8373 31.6616 54.8407 31.6204 54.8476 31.5928V31.3764C54.8476 31.1635 54.8819 31.0089 54.9507 30.9127C55.0125 30.8096 55.1602 30.6722 55.3938 30.5005L55.9812 30.0677H52.601L53.1885 30.5005C53.4151 30.6722 53.5663 30.8096 53.6418 30.9127C53.7038 31.0157 53.7346 31.1703 53.7346 31.3764C53.7415 31.452 53.745 31.5654 53.745 31.7165V31.8917V41.5273V41.7025C53.745 41.8536 53.7415 41.967 53.7346 42.0426C53.7346 42.2555 53.7038 42.4101 53.6418 42.5063C53.5869 42.5956 53.4358 42.733 53.1885 42.9185ZM57.7641 43.743H51.3438V43.4235C52.0789 43.2999 52.6182 43.0147 52.9617 42.5682C53.2227 42.2315 53.3533 41.5754 53.3533 40.5999V32.8193C53.3533 32.1803 53.3189 31.7268 53.2503 31.4589C53.1747 31.1635 53.0476 30.923 52.869 30.7375C52.5323 30.3597 52.024 30.1123 51.3438 29.9955V29.676H57.7641V29.9955C57.022 30.1192 56.4793 30.4043 56.1358 30.8509C55.9984 31.0295 55.8987 31.2665 55.8369 31.562C55.7751 31.8573 55.7442 32.2764 55.7442 32.8193V36.2613H62.9889V32.8193C62.9889 32.1803 62.9545 31.7268 62.8859 31.4589C62.8103 31.1635 62.6831 30.923 62.5046 30.7375C62.1679 30.3597 61.6595 30.1123 60.9793 29.9955V29.676H67.3996V29.9955C66.6576 30.1192 66.1149 30.4043 65.7714 30.8509C65.634 31.0295 65.5343 31.2665 65.4725 31.562C65.4107 31.8573 65.3797 32.2764 65.3797 32.8193V40.5999C65.3797 41.1632 65.4175 41.6029 65.4931 41.919C65.5687 42.2281 65.6958 42.4823 65.8744 42.6815C66.2111 43.0594 66.7194 43.3067 67.3996 43.4235V43.743H60.9793V43.4235C61.7145 43.2999 62.2538 43.0147 62.5973 42.5682C62.8583 42.2315 62.9889 41.5754 62.9889 40.5999V36.7352H55.7442V40.5999C55.7442 41.1632 55.7819 41.6029 55.8575 41.919C55.9331 42.2281 56.0602 42.4823 56.2388 42.6815C56.5755 43.0594 57.0839 43.3067 57.7641 43.4235V43.743ZM78.581 43.0731C81.0955 41.6166 82.3528 39.5006 82.3528 36.725C82.3528 35.818 82.2154 34.9628 81.9406 34.159C81.6727 33.3688 81.2776 32.644 80.7555 31.9845C80.2402 31.3524 79.639 30.8474 78.952 30.4696C80.4566 31.7887 81.2089 33.8429 81.2089 36.6322C81.2089 37.4498 81.1368 38.2296 80.9925 38.9715C80.8413 39.7205 80.6352 40.3731 80.3742 40.9296C80.2161 41.2594 80.0753 41.5101 79.9517 41.6819C79.7799 41.9224 79.5944 42.1422 79.3951 42.3415C79.1891 42.5613 78.9176 42.8052 78.581 43.0731ZM72.9234 43.0628C72.3187 42.6094 71.8138 42.0735 71.4085 41.4551C70.9962 40.83 70.6939 40.1189 70.5015 39.322C70.2954 38.5044 70.1924 37.6146 70.1924 36.6528C70.1924 35.2169 70.4123 33.9974 70.852 32.9944C71.2917 31.9845 71.9821 31.1257 72.9234 30.418C72.1058 30.8577 71.4085 31.3936 70.8314 32.0257C70.2405 32.6647 69.7973 33.3792 69.5019 34.1692C69.1928 34.9594 69.0382 35.8078 69.0382 36.7146C69.0382 37.6078 69.1928 38.4528 69.5019 39.2498C69.7973 40.0468 70.2405 40.7716 70.8314 41.4243C71.4085 42.07 72.1058 42.6162 72.9234 43.0628ZM71.2435 36.6528C71.2435 37.6628 71.3569 38.5971 71.5837 39.4559C71.8035 40.3078 72.1298 41.043 72.5626 41.6613C72.9955 42.2865 73.5039 42.7536 74.0879 43.0628C74.6787 43.3857 75.3348 43.5472 76.0562 43.5472C77.2379 43.5472 78.265 43.08 79.1375 42.1456C79.6666 41.5754 80.0821 40.8162 80.3845 39.8681C80.673 38.9269 80.8173 37.8517 80.8173 36.6426C80.8173 35.5982 80.7074 34.6433 80.4876 33.7776C80.2608 32.9257 79.9413 32.2009 79.5291 31.6032C79.0963 30.9917 78.5948 30.5314 78.0246 30.2223C77.4337 29.8994 76.7707 29.7378 76.0356 29.7378C75.3142 29.7378 74.6581 29.8994 74.0673 30.2223C73.4764 30.552 72.9714 31.0192 72.5524 31.6238C72.1401 32.2215 71.8172 32.9566 71.5837 33.8291C71.3569 34.6948 71.2435 35.636 71.2435 36.6528ZM68.6466 36.725C68.6466 35.7356 68.8389 34.7841 69.2237 33.8704C69.6015 32.9703 70.1374 32.1734 70.8314 31.4796C71.5047 30.8062 72.2947 30.2772 73.2015 29.8925C74.1016 29.5215 75.0463 29.3359 76.0356 29.3359C77.3684 29.3359 78.6016 29.6658 79.7352 30.3253C80.8619 30.9986 81.7585 31.8985 82.425 33.0253C83.0845 34.159 83.4143 35.3921 83.4143 36.725C83.4143 37.7074 83.2288 38.6487 82.8578 39.5487C82.473 40.4555 81.9406 41.2491 81.2604 41.9292C80.5802 42.6094 79.7936 43.1419 78.9005 43.5266C78.0074 43.9113 77.0626 44.1037 76.0665 44.1037C74.7131 44.1037 73.4696 43.7739 72.3359 43.1143C71.1955 42.4548 70.2954 41.5582 69.6359 40.4246C68.9763 39.2978 68.6466 38.0647 68.6466 36.725ZM86.3925 30.0573H84.9807L84.8364 31.5722C85.1456 31.1189 85.3963 30.8028 85.5887 30.6242C85.8086 30.4112 86.0765 30.2223 86.3925 30.0573ZM89.9686 42.9185L89.5563 43.2174H92.5758L92.1739 42.9185C91.9334 42.733 91.7788 42.5922 91.7102 42.496C91.6483 42.3999 91.6174 42.2487 91.6174 42.0426V41.7025V41.5891C91.6105 41.5754 91.6071 41.5548 91.6071 41.5273V31.8917C91.6071 31.8643 91.6105 31.8437 91.6174 31.8299V31.7165V31.3764C91.6174 31.1703 91.6552 31.0089 91.7308 30.8921C91.7926 30.8028 91.9403 30.6722 92.1739 30.5005L92.7613 30.0677H89.5873L90.0716 30.5005C90.2434 30.6516 90.3601 30.789 90.4219 30.9127C90.4838 31.0433 90.5147 31.1978 90.5147 31.3764V31.7165C90.5215 31.7577 90.5251 31.8161 90.5251 31.8917V41.5273C90.5251 41.6029 90.5215 41.6613 90.5147 41.7025V42.0426C90.5147 42.2487 90.4838 42.4033 90.4219 42.5063C90.3464 42.6094 90.1952 42.7468 89.9686 42.9185ZM97.4297 31.428L97.2339 30.0573H95.7395C96.1244 30.2223 96.4301 30.394 96.6567 30.5726C96.8972 30.765 97.1548 31.0501 97.4297 31.428ZM84.6406 29.676H98.0171L98.3365 33.5097H98.0068C97.8006 32.8021 97.5224 32.1906 97.172 31.6753C96.8079 31.1531 96.3957 30.7547 95.9354 30.4799C95.4682 30.2051 94.9735 30.0677 94.4514 30.0677C94.0529 30.0677 93.7025 30.1501 93.4002 30.315C93.0911 30.4936 92.8678 30.7272 92.7304 31.0157C92.593 31.3043 92.5243 31.7577 92.5243 32.376V40.5999C92.5243 41.2113 92.5655 41.6578 92.648 41.9396C92.7304 42.2281 92.8884 42.4789 93.1219 42.6918C93.5342 43.0628 94.1457 43.3067 94.9563 43.4235V43.743H87.691V43.4235C88.5842 43.2999 89.2368 43.0181 89.6491 42.5785C89.8277 42.3861 89.9548 42.1422 90.0304 41.8468C90.099 41.5719 90.1334 41.1563 90.1334 40.5999V32.376C90.1334 31.6959 90.0406 31.2013 89.8552 30.8921C89.7177 30.6448 89.5013 30.4421 89.206 30.2841C88.9174 30.1398 88.5842 30.0677 88.2063 30.0677C87.4368 30.0677 86.7292 30.3734 86.0834 30.9849C85.4445 31.5894 84.9636 32.431 84.6406 33.5097H84.3211L84.6406 29.676ZM114.516 43.2689C115.313 43.0835 115.993 42.8258 116.557 42.496C117.113 42.1731 117.649 41.7334 118.164 41.1769C119.298 39.8991 119.864 38.3842 119.864 36.6322C119.864 35.5673 119.665 34.5917 119.266 33.7055C118.854 32.7917 118.285 32.0257 117.556 31.4074C116.807 30.7822 115.945 30.3356 114.97 30.0677C115.306 30.2257 115.656 30.4249 116.02 30.6654C116.344 30.8921 116.632 31.1395 116.887 31.4074C117.127 31.6684 117.343 31.9433 117.536 32.2318C118.326 33.4341 118.721 34.8632 118.721 36.5189C118.721 37.3845 118.611 38.2261 118.391 39.0437C118.178 39.8407 117.861 40.5415 117.442 41.146C117.086 41.6681 116.684 42.0872 116.237 42.4033C115.763 42.74 115.189 43.0285 114.516 43.2689ZM107.982 42.9185L107.58 43.2174C108.178 43.1555 108.718 43.1247 109.198 43.1247C109.714 43.1247 110.177 43.1487 110.59 43.1967L110.188 42.9185C109.982 42.7812 109.841 42.6506 109.765 42.5269C109.683 42.4033 109.641 42.2418 109.641 42.0426C109.634 41.967 109.631 41.8536 109.631 41.7025V41.5273V31.8917V31.7165C109.631 31.5654 109.634 31.452 109.641 31.3764C109.641 31.1635 109.676 31.0089 109.745 30.9127C109.806 30.8096 109.954 30.6722 110.188 30.5005L110.734 30.0985C110.089 30.1535 109.566 30.1811 109.168 30.1811C108.714 30.1811 108.199 30.1569 107.621 30.1089L107.436 30.0985L107.982 30.5005C108.223 30.6722 108.371 30.8028 108.425 30.8921C108.495 31.0021 108.529 31.1635 108.529 31.3764C108.529 31.4658 108.532 31.5276 108.539 31.562V31.7165V31.8917V41.5273V41.7025V41.8468C108.532 41.8812 108.529 41.9464 108.529 42.0426C108.529 42.2555 108.498 42.4101 108.436 42.5063C108.381 42.5956 108.229 42.733 107.982 42.9185ZM110.559 32.2009L110.538 40.167C110.538 41.0396 110.617 41.6819 110.775 42.0941C110.933 42.472 111.191 42.757 111.548 42.9494C111.913 43.1555 112.345 43.2587 112.846 43.2587C113.636 43.2587 114.365 43.0937 115.031 42.764C115.678 42.4548 116.261 41.9876 116.783 41.3624C117.285 40.7441 117.662 40.0262 117.917 39.2086C118.178 38.3636 118.309 37.4704 118.309 36.5292C118.309 35.2651 118.079 34.1383 117.618 33.149C117.158 32.1528 116.512 31.3696 115.681 30.7994C114.849 30.2359 113.925 29.9543 112.909 29.9543C112.105 29.9543 111.514 30.1329 111.136 30.4902C110.751 30.8543 110.559 31.4246 110.559 32.2009ZM106.107 43.743L106.138 43.4235C106.872 43.2999 107.412 43.0147 107.756 42.5682C108.017 42.2315 108.147 41.5754 108.147 40.5999V32.8193C108.147 32.2284 108.117 31.7853 108.054 31.4898C107.979 31.1944 107.848 30.9436 107.663 30.7375C107.327 30.3597 106.818 30.1123 106.138 29.9955V29.676C106.482 29.6898 106.615 29.6966 106.54 29.6966L107.746 29.7584C108.137 29.7792 108.556 29.7894 109.003 29.7894C109.813 29.7894 110.686 29.7482 111.62 29.6658C112.451 29.597 113.098 29.5627 113.558 29.5627C114.663 29.5627 115.66 29.731 116.546 30.0677C117.425 30.4043 118.202 30.8921 118.876 31.531C119.528 32.1562 120.033 32.9085 120.39 33.7879C120.748 34.6536 120.926 35.612 120.926 36.6632C120.926 37.7074 120.744 38.6761 120.38 39.5693C120.016 40.4555 119.491 41.2147 118.803 41.8468C118.116 42.472 117.302 42.9563 116.361 43.2999C115.419 43.6364 114.365 43.8048 113.197 43.8048C112.778 43.8048 112.098 43.7636 111.157 43.6812C110.497 43.6194 109.854 43.5884 109.229 43.5884C108.728 43.5884 108.24 43.6022 107.766 43.6296L106.365 43.7326C106.254 43.7326 106.169 43.7361 106.107 43.743ZM132.231 43.0731C134.746 41.6166 136.003 39.5006 136.003 36.725C136.003 35.818 135.865 34.9628 135.591 34.159C135.323 33.3688 134.928 32.644 134.405 31.9845C133.891 31.3524 133.29 30.8474 132.602 30.4696C134.107 31.7887 134.859 33.8429 134.859 36.6322C134.859 37.4498 134.787 38.2296 134.642 38.9715C134.492 39.7205 134.286 40.3731 134.024 40.9296C133.866 41.2594 133.726 41.5101 133.602 41.6819C133.43 41.9224 133.244 42.1422 133.045 42.3415C132.839 42.5613 132.568 42.8052 132.231 43.0731ZM126.573 43.0628C125.969 42.6094 125.463 42.0735 125.058 41.4551C124.646 40.83 124.344 40.1189 124.152 39.322C123.946 38.5044 123.842 37.6146 123.842 36.6528C123.842 35.2169 124.062 33.9974 124.502 32.9944C124.942 31.9845 125.632 31.1257 126.573 30.418C125.756 30.8577 125.058 31.3936 124.482 32.0257C123.891 32.6647 123.447 33.3792 123.152 34.1692C122.843 34.9594 122.689 35.8078 122.689 36.7146C122.689 37.6078 122.843 38.4528 123.152 39.2498C123.447 40.0468 123.891 40.7716 124.482 41.4243C125.058 42.07 125.756 42.6162 126.573 43.0628ZM124.894 36.6528C124.894 37.6628 125.007 38.5971 125.233 39.4559C125.453 40.3078 125.78 41.043 126.213 41.6613C126.645 42.2865 127.154 42.7536 127.738 43.0628C128.329 43.3857 128.985 43.5472 129.707 43.5472C130.888 43.5472 131.915 43.08 132.788 42.1456C133.317 41.5754 133.732 40.8162 134.034 39.8681C134.323 38.9269 134.467 37.8517 134.467 36.6426C134.467 35.5982 134.358 34.6433 134.138 33.7776C133.911 32.9257 133.591 32.2009 133.179 31.6032C132.747 30.9917 132.244 30.5314 131.675 30.2223C131.084 29.8994 130.421 29.7378 129.686 29.7378C128.964 29.7378 128.309 29.8994 127.718 30.2223C127.127 30.552 126.621 31.0192 126.202 31.6238C125.79 32.2215 125.467 32.9566 125.233 33.8291C125.007 34.6948 124.894 35.636 124.894 36.6528ZM122.297 36.725C122.297 35.7356 122.489 34.7841 122.874 33.8704C123.251 32.9703 123.787 32.1734 124.482 31.4796C125.155 30.8062 125.945 30.2772 126.851 29.8925C127.752 29.5215 128.697 29.3359 129.686 29.3359C131.018 29.3359 132.251 29.6658 133.385 30.3253C134.512 30.9986 135.408 31.8985 136.076 33.0253C136.735 34.159 137.064 35.3921 137.064 36.725C137.064 37.7074 136.879 38.6487 136.508 39.5487C136.123 40.4555 135.591 41.2491 134.911 41.9292C134.23 42.6094 133.443 43.1419 132.551 43.5266C131.657 43.9113 130.713 44.1037 129.717 44.1037C128.363 44.1037 127.12 43.7739 125.986 43.1143C124.845 42.4548 123.946 41.5582 123.286 40.4246C122.626 39.2978 122.297 38.0647 122.297 36.725ZM144.948 43.7018C144.179 43.4338 143.553 43.1521 143.072 42.8567C142.591 42.5613 142.135 42.1765 141.702 41.7025C141.118 41.036 140.671 40.27 140.362 39.4044C140.046 38.5456 139.888 37.6353 139.888 36.6734C139.888 35.8558 140.001 35.0555 140.228 34.2723C140.454 33.4891 140.785 32.7987 141.217 32.2009C141.685 31.5344 142.409 30.8543 143.392 30.1605C142.416 30.6344 141.585 31.2081 140.898 31.8815C140.211 32.5478 139.696 33.307 139.352 34.159C139.002 35.004 138.826 35.9108 138.826 36.8796C138.826 38.0681 139.085 39.1639 139.599 40.167C140.101 41.1632 140.822 41.9704 141.764 42.5888C142.705 43.2071 143.766 43.578 144.948 43.7018ZM152.852 37.2299H149.431L150.039 37.6834C150.265 37.8551 150.417 37.9925 150.493 38.0956C150.554 38.1987 150.585 38.3532 150.585 38.5594C150.585 38.6487 150.588 38.7105 150.595 38.7449V38.8995V39.0746V40.6411C150.595 41.1906 150.537 41.6201 150.42 41.9292C150.297 42.2315 150.062 42.5544 149.72 42.8979C150.365 42.63 151.021 42.4548 151.688 42.3723V39.0746V38.8995C151.688 38.7483 151.692 38.6349 151.698 38.5594C151.698 38.3532 151.736 38.1918 151.811 38.075C151.874 37.9719 152.017 37.8414 152.244 37.6834L152.852 37.2299ZM150.801 29.8512L151.987 33.5715H151.678C151.334 32.9119 150.97 32.3382 150.585 31.8505C150.2 31.3558 149.815 30.9711 149.431 30.6963C148.634 30.1055 147.686 29.81 146.587 29.81C145.776 29.81 145.013 29.9783 144.299 30.315C143.564 30.6585 142.925 31.1463 142.382 31.7783C141.372 32.9395 140.867 34.4097 140.867 36.1891C140.867 37.5562 141.128 38.7861 141.65 39.8784C142.172 40.9708 142.894 41.833 143.814 42.4651C144.728 43.0903 145.749 43.4029 146.876 43.4029C147.576 43.4029 148.194 43.2861 148.73 43.0525C149.272 42.8258 149.657 42.5166 149.885 42.125C150.098 41.7678 150.204 41.1769 150.204 40.3525V40.0021C150.204 39.3906 150.163 38.9372 150.081 38.6418C149.991 38.3395 149.836 38.0819 149.616 37.8689C149.197 37.4772 148.582 37.2471 147.772 37.1784V36.859H154.12V37.1784C153.577 37.3021 153.165 37.5872 152.884 38.0337C152.691 38.3704 152.595 39.0265 152.595 40.0021V41.8776L153.223 42.8258C153.162 42.819 153.051 42.8154 152.894 42.8154C152.344 42.8154 151.835 42.8602 151.368 42.9494C150.839 43.0525 150.207 43.2209 149.473 43.4544C148.703 43.7018 148.07 43.8632 147.576 43.9388C147.067 44.0281 146.508 44.0727 145.897 44.0727C143.656 44.0727 141.901 43.4476 140.63 42.1971C139.936 41.4963 139.397 40.6789 139.012 39.7445C138.62 38.8033 138.424 37.8448 138.424 36.8692C138.424 35.8456 138.624 34.8803 139.022 33.9734C139.421 33.0597 139.974 32.2593 140.682 31.5722C141.389 30.8852 142.213 30.3459 143.155 29.9543C144.103 29.5696 145.1 29.3772 146.144 29.3772C146.769 29.3772 147.487 29.4425 148.298 29.573C148.414 29.5799 148.562 29.6005 148.741 29.6348C149.16 29.7104 149.479 29.7688 149.699 29.81C149.933 29.8581 150.135 29.8822 150.307 29.8822C150.355 29.8822 150.403 29.8788 150.451 29.8718C150.5 29.865 150.575 29.8616 150.678 29.8616C150.74 29.8616 150.781 29.8581 150.801 29.8512Z" fill="#1D1A19"/>
<path d="M62.1378 82.0761C62.1378 83.4992 61.5818 84.7096 60.4694 85.7075C59.3734 86.7053 58.0075 87.2042 56.3717 87.2042C54.7197 87.2042 53.3373 86.7053 52.2251 85.7075C51.1291 84.7096 50.5811 83.4992 50.5811 82.0761V76.4081H54.6051V84.2844C54.6051 85.6257 55.194 86.2964 56.3717 86.2964C57.5331 86.2964 58.1138 85.6257 58.1138 84.2844V78.1748C58.1138 76.5062 57.7131 75.0422 56.9116 73.7826L51.8816 65.9555C51.0145 64.5978 50.5811 63.0929 50.5811 61.4407V56.656C50.5811 55.2329 51.1291 54.0224 52.2251 53.0246C53.3373 52.0267 54.7197 51.5278 56.3717 51.5278C58.0075 51.5278 59.3734 52.0267 60.4694 53.0246C61.5818 54.0224 62.1378 55.2329 62.1378 56.656V62.324H58.1138V54.4477C58.1138 53.1063 57.5331 52.4357 56.3717 52.4357C55.194 52.4357 54.6051 53.1063 54.6051 54.4477V60.3365C54.6051 61.9886 55.0059 63.4445 55.8074 64.704L60.8374 72.5312C61.7044 73.8889 62.1378 75.4021 62.1378 77.0705V82.0761ZM60.1259 61.4407V55.8463C60.1259 54.5049 59.5288 53.4498 58.3347 52.6811C58.8581 53.3026 59.1199 54.1287 59.1199 55.1593V61.4407H60.1259ZM60.1259 82.8858V77.6103C60.1259 75.9255 59.7088 74.437 58.8745 73.1447L53.8445 65.342C53.0102 64.0497 52.5931 62.5612 52.5931 60.8764V55.6991C52.5931 54.734 52.8139 53.9325 53.2556 53.2945C52.1433 54.0469 51.5871 55.053 51.5871 56.3125V61.1217C51.5871 62.8065 52.0042 64.3033 52.8384 65.612L57.8685 73.39C58.7028 74.6823 59.1199 76.1709 59.1199 77.8558V83.5974C59.1199 84.6115 58.8581 85.4294 58.3347 86.051C59.5288 85.2822 60.1259 84.2271 60.1259 82.8858ZM53.2556 85.4621C52.8139 84.8242 52.5931 84.0145 52.5931 83.0331V77.316H51.5871V82.4441C51.5871 83.6873 52.1433 84.6934 53.2556 85.4621ZM78.7983 86.9589H72.247V86.051H73.523V68.8262H69.4989V86.051H70.7503V86.9589H64.2235V86.051H65.4749V52.6811H64.2235V51.7732H70.7503V52.6811H69.4989V67.9184H73.523V52.6811H72.247V51.7732H78.7983V52.6811H77.5225V86.051H78.7983V86.9589ZM75.5349 86.051V52.6811H74.5289V86.051H75.5349ZM67.4869 86.051V52.6811H66.4809V86.051H67.4869ZM92.8825 86.9589H80.3197V86.051H81.571V52.6811H80.3197V51.7732H92.8825V62.324H88.8584V52.6811H85.595V67.9184H90.3551V68.8262H85.595V86.051H88.8584V76.4081H92.8825V86.9589ZM90.8704 61.4407V52.6811H89.8644V61.4407H90.8704ZM83.583 86.051V52.6811H82.577V86.051H83.583ZM90.8704 86.051V77.316H89.8644V86.051H90.8704ZM107.187 86.9589H94.8944V86.051H96.1458V52.6811H94.8944V51.7732H101.421V52.6811H100.17V86.051H103.188V76.4081H107.187V86.9589ZM98.1578 86.051V52.6811H97.1518V86.051H98.1578ZM105.2 86.051V77.316H104.194V86.051H105.2ZM123.799 62.324H120.094V52.6811H118.278V86.051H119.53V86.9589H113.003V86.051H114.254V52.6811H112.438V62.324H108.733V51.7732H123.799V62.324ZM122.081 61.4407V52.6811H121.1V61.4407H122.081ZM110.745 61.4407V52.6811H109.739V61.4407H110.745ZM116.266 86.051V52.6811H115.26V86.051H116.266ZM137.882 86.9589H125.32V86.051H126.571V52.6811H125.32V51.7732H137.882V62.324H133.858V52.6811H130.595V67.9184H135.356V68.8262H130.595V86.051H133.858V76.4081H137.882V86.9589ZM135.87 61.4407V52.6811H134.864V61.4407H135.87ZM128.583 86.051V52.6811H127.577V86.051H128.583ZM135.87 86.051V77.316H134.864V86.051H135.87ZM154.2 86.9589H152.457C150.103 86.9589 148.925 85.732 148.925 83.2784V70.8383C148.925 70.2821 148.728 69.8077 148.336 69.4151C147.943 69.0225 147.468 68.8262 146.913 68.8262H145.17V86.051H146.421V86.9589H139.895V86.051H141.146V52.6811H139.895V51.7732H146.913C148.581 51.7732 150.004 52.2803 151.182 53.2945C152.36 54.2923 152.949 55.4946 152.949 56.9014V63.6981C152.949 65.89 151.779 67.444 149.439 68.36C151.779 69.3415 152.949 70.9037 152.949 73.0465V84.7015C152.949 85.6012 153.333 86.051 154.102 86.051H154.2V86.9589ZM150.937 64.5077V56.1162C150.937 54.7585 150.34 53.7034 149.145 52.9509C149.668 53.5562 149.931 54.3741 149.931 55.4046V65.1948C149.931 66.2253 149.668 67.0514 149.145 67.673C150.34 66.9042 150.937 65.8491 150.937 64.5077ZM148.925 65.9063V54.6931C148.925 54.1369 148.728 53.6625 148.336 53.2699C147.943 52.8774 147.468 52.6811 146.913 52.6811H145.17V67.9184H146.913C147.468 67.9184 147.943 67.7221 148.336 67.3295C148.728 66.9369 148.925 66.4625 148.925 65.9063ZM143.158 86.051V52.6811H142.152V86.051H143.158ZM151.943 86.2964C151.271 85.9202 150.937 85.2004 150.937 84.1372V72.2369C150.937 70.8955 150.34 69.8404 149.145 69.0716C149.668 69.6932 149.931 70.511 149.931 71.5253V83.6955C149.931 85.2004 150.601 86.0674 151.943 86.2964Z" fill="#1D1A19"/>
</g>
<path d="M138.693 15.6021H61.3065C35.7737 15.6021 15.0753 36.3004 15.0753 61.8332C15.0753 87.366 35.7737 108.064 61.3065 108.064H138.693C164.226 108.064 184.925 87.366 184.925 61.8332C184.925 36.3004 164.226 15.6021 138.693 15.6021Z" stroke="#1D1A19" stroke-width="2"/>
</svg>
