<svg width="156" height="96" viewBox="0 0 156 96" fill="none" xmlns="http://www.w3.org/2000/svg">
<mask id="mask0_153_1445" style="mask-type:luminance" maskUnits="userSpaceOnUse" x="12" y="12" width="132" height="72">
<path d="M108.181 12.5569H47.8191C28.3365 12.5569 12.5427 28.3507 12.5427 47.8333C12.5427 67.3159 28.3365 83.1096 47.8191 83.1096H108.181C127.664 83.1096 143.457 67.3159 143.457 47.8333C143.457 28.3507 127.664 12.5569 108.181 12.5569Z" fill="white"/>
</mask>
<g mask="url(#mask0_153_1445)">
<path d="M108.181 14.3208H47.8191C29.3106 14.3208 14.3065 29.3249 14.3065 47.8334C14.3065 66.3418 29.3106 81.3459 47.8191 81.3459H108.181C126.689 81.3459 141.693 66.3418 141.693 47.8334C141.693 29.3249 126.689 14.3208 108.181 14.3208Z" stroke="#1D1A19" stroke-width="0.5"/>
<path d="M136.402 42.3459L137.45 46.0182L141.154 45.0897L138.498 47.8334L141.154 50.5771L137.45 49.6485L136.402 53.3208L135.354 49.6485L131.65 50.5771L134.306 47.8334L131.65 45.0897L135.354 46.0182L136.402 42.3459Z" fill="#1D1A19"/>
<path d="M19.598 42.3459L20.646 46.0182L24.3503 45.0897L21.694 47.8334L24.3503 50.5771L20.646 49.6485L19.598 53.3208L18.55 49.6485L14.8457 50.5771L17.5019 47.8334L14.8457 45.0897L18.55 46.0182L19.598 42.3459Z" fill="#1D1A19"/>
<path d="M35.2764 35.2908H121.508" stroke="#1D1A19" stroke-linecap="round"/>
<path d="M50.9547 69.7832H105.829" stroke="#1D1A19" stroke-width="0.5" stroke-linecap="round"/>
<path d="M35.2764 36.8584H121.508" stroke="#1D1A19" stroke-width="0.351759" stroke-linecap="round"/>
<path d="M105.829 16.5942H50.1708C32.9179 16.5942 18.9316 30.5805 18.9316 47.8334C18.9316 65.0864 32.9179 79.0726 50.1708 79.0726H105.829C123.082 79.0726 137.068 65.0864 137.068 47.8334C137.068 30.5805 123.082 16.5942 105.829 16.5942Z" stroke="#1D1A19"/>
<path d="M69.2155 75.3082C69.1027 75.3082 68.9976 75.2894 68.9004 75.2518C68.8032 75.211 68.7248 75.1498 68.6652 75.0683C68.6088 74.9868 68.5806 74.8833 68.5806 74.7579C68.5806 74.6575 68.6057 74.5839 68.6558 74.5368C68.7091 74.4898 68.764 74.4663 68.8204 74.4663C68.8769 74.4663 68.9271 74.4851 68.971 74.5227C69.018 74.5572 69.0415 74.6058 69.0415 74.6685C69.0415 74.703 69.0337 74.7328 69.018 74.7579C69.0023 74.783 68.9866 74.8065 68.971 74.8284C68.9521 74.8535 68.9333 74.877 68.9145 74.899C68.8957 74.9209 68.8863 74.9492 68.8863 74.9837C68.8863 75.0432 68.9161 75.0918 68.9757 75.1295C69.0384 75.1671 69.1136 75.1859 69.2014 75.1859C69.3018 75.1859 69.3864 75.1561 69.4554 75.0965C69.5275 75.0338 69.5636 74.9366 69.5636 74.8049C69.5636 74.7203 69.5417 74.6403 69.4978 74.565C69.457 74.4867 69.4068 74.4083 69.3472 74.3299C69.2814 74.2358 69.2187 74.1402 69.1591 74.043C69.0995 73.9457 69.0697 73.836 69.0697 73.7137C69.0697 73.604 69.098 73.5099 69.1544 73.4315C69.214 73.3531 69.2924 73.292 69.3896 73.2481C69.4868 73.2042 69.595 73.1822 69.7141 73.1822C69.8615 73.1822 69.9901 73.2167 70.0998 73.2857C70.2127 73.3547 70.2691 73.4566 70.2691 73.5914C70.2691 73.6541 70.2519 73.7074 70.2174 73.7513C70.186 73.7921 70.1374 73.8125 70.0716 73.8125C70.0026 73.8125 69.9524 73.7937 69.9211 73.756C69.8897 73.7184 69.874 73.6729 69.874 73.6196C69.874 73.6102 69.874 73.5993 69.874 73.5867C69.8772 73.5742 69.8803 73.5616 69.8834 73.5491C69.8866 73.5365 69.8897 73.524 69.8929 73.5115C69.896 73.4958 69.8976 73.4832 69.8976 73.4738C69.8976 73.4205 69.8756 73.3782 69.8317 73.3468C69.7909 73.3155 69.7392 73.2998 69.6765 73.2998C69.6138 73.2998 69.5542 73.3233 69.4978 73.3703C69.4413 73.4142 69.4131 73.4879 69.4131 73.5914C69.4131 73.6761 69.4382 73.7607 69.4883 73.8454C69.5416 73.9269 69.5965 74.0069 69.653 74.0853C69.7251 74.1762 69.7862 74.2672 69.8364 74.3581C69.8897 74.4459 69.9164 74.5572 69.9164 74.692C69.9164 74.8269 69.8819 74.9413 69.8129 75.0354C69.747 75.1263 69.6592 75.1953 69.5495 75.2423C69.4429 75.2862 69.3316 75.3082 69.2155 75.3082ZM70.8201 75.3082C70.7229 75.3082 70.6508 75.2737 70.6038 75.2047C70.5599 75.1326 70.5568 75.0464 70.5944 74.946L71.1071 73.6573C71.1353 73.5851 71.1431 73.5365 71.1306 73.5115C71.1212 73.4864 71.1071 73.4738 71.0882 73.4738C71.0569 73.4738 71.0083 73.5052 70.9424 73.5679C70.8797 73.6275 70.8123 73.7027 70.7402 73.7937C70.6681 73.8815 70.6038 73.9693 70.5473 74.0571L70.4627 74.0053C70.6571 73.7263 70.8201 73.5193 70.9518 73.3845C71.0835 73.2496 71.2137 73.1822 71.3422 73.1822C71.4426 73.1822 71.5116 73.2198 71.5492 73.2951C71.59 73.3672 71.5868 73.4629 71.5398 73.582L71.0506 74.819C71.0224 74.888 71.0146 74.9382 71.0271 74.9695C71.0396 75.0009 71.0585 75.0166 71.0835 75.0166C71.1149 75.0166 71.1604 74.9884 71.2199 74.9319C71.2827 74.8755 71.3501 74.8034 71.4222 74.7156C71.4975 74.6246 71.568 74.529 71.6339 74.4286L71.7232 74.4851C71.5225 74.7736 71.3501 74.9837 71.2058 75.1154C71.0616 75.2439 70.933 75.3082 70.8201 75.3082ZM71.6903 72.6554C71.6119 72.6554 71.5414 72.6241 71.4786 72.5613C71.4159 72.4986 71.3846 72.4265 71.3846 72.345C71.3846 72.2572 71.4159 72.1819 71.4786 72.1192C71.5414 72.0565 71.6119 72.0251 71.6903 72.0251C71.7812 72.0251 71.8565 72.0565 71.9161 72.1192C71.9788 72.1819 72.0101 72.2572 72.0101 72.345C72.0101 72.4265 71.9788 72.4986 71.9161 72.5613C71.8534 72.6241 71.7781 72.6554 71.6903 72.6554ZM71.9183 75.3223L72.5862 73.6479C72.6112 73.5851 72.6191 73.5412 72.6097 73.5162C72.6034 73.4911 72.5877 73.4785 72.5626 73.4785C72.5313 73.4785 72.4827 73.5099 72.4168 73.5726C72.3541 73.6322 72.2867 73.7074 72.2146 73.7984C72.1425 73.8862 72.0782 73.974 72.0217 74.0618L71.9371 74.0053C72.1284 73.7294 72.2914 73.524 72.4262 73.3892C72.5611 73.2543 72.6896 73.1869 72.8119 73.1869C72.9123 73.1869 72.9828 73.2245 73.0236 73.2998C73.0644 73.3719 73.0581 73.4676 73.0048 73.5867L72.6661 74.4051H72.6802C72.7335 74.3173 72.7978 74.2201 72.8731 74.1135C72.9483 74.0038 73.0299 73.8956 73.1177 73.789C73.2086 73.6792 73.3042 73.5789 73.4046 73.4879C73.5049 73.397 73.6068 73.3233 73.7103 73.2669C73.8169 73.2104 73.9204 73.1822 74.0207 73.1822C74.1305 73.1822 74.2026 73.2214 74.2371 73.2998C74.2747 73.3782 74.2685 73.4738 74.2183 73.5867L73.6821 74.8378C73.6601 74.8974 73.6539 74.9429 73.6633 74.9743C73.6727 75.0025 73.6931 75.0166 73.7244 75.0166C73.7589 75.0166 73.8059 74.9884 73.8655 74.9319C73.9282 74.8755 73.9957 74.8034 74.0678 74.7156C74.143 74.6246 74.2136 74.529 74.2794 74.4286L74.3641 74.4851C74.1665 74.7736 73.9956 74.9837 73.8514 75.1154C73.7072 75.2439 73.577 75.3082 73.461 75.3082C73.3544 75.3082 73.2807 75.2706 73.24 75.1953C73.2023 75.1169 73.2102 75.015 73.2635 74.8896L73.7715 73.6996C73.7965 73.64 73.8028 73.5946 73.7903 73.5632C73.7809 73.5287 73.7542 73.5115 73.7103 73.5115C73.6507 73.5115 73.5645 73.5585 73.4516 73.6526C73.3387 73.7435 73.2133 73.8705 73.0753 74.0335C72.9374 74.1966 72.8025 74.3847 72.6708 74.598C72.5423 74.8081 72.4341 75.0323 72.3463 75.2706L71.9183 75.3223ZM74.9723 75.3082C74.8531 75.3082 74.7528 75.269 74.6712 75.1906C74.5928 75.1122 74.5536 74.9978 74.5536 74.8473C74.5536 74.6748 74.5866 74.507 74.6524 74.344C74.7214 74.1809 74.8092 74.0288 74.9158 73.8877C75.0224 73.7466 75.1337 73.6228 75.2498 73.5162C75.3658 73.4127 75.4818 73.3312 75.5978 73.2716C75.7138 73.212 75.8189 73.1822 75.913 73.1822C76.0353 73.1822 76.1262 73.2151 76.1858 73.281C76.2485 73.3468 76.2798 73.4252 76.2798 73.5162C76.2798 73.5851 76.2642 73.64 76.2328 73.6808C76.2014 73.7215 76.1544 73.7419 76.0917 73.7419C76.0164 73.7419 75.9694 73.7247 75.9506 73.6902C75.9318 73.6526 75.9192 73.6102 75.913 73.5632C75.9067 73.5224 75.8957 73.4895 75.88 73.4644C75.8675 73.4362 75.8346 73.4221 75.7813 73.4221C75.6997 73.4221 75.6119 73.4503 75.5179 73.5068C75.4238 73.5632 75.3344 73.6432 75.2498 73.7466C75.1651 73.8501 75.0945 73.9708 75.0381 74.1088C74.9848 74.2436 74.9581 74.3926 74.9581 74.5556C74.9581 74.7156 74.9848 74.8237 75.0381 74.8802C75.0945 74.9335 75.1604 74.9601 75.2357 74.9601C75.3391 74.9601 75.4489 74.9147 75.5649 74.8237C75.6841 74.7328 75.8001 74.5995 75.913 74.4239L76.0023 74.4757C75.9208 74.6136 75.8252 74.7469 75.7154 74.8755C75.6057 75.0009 75.4865 75.1044 75.3579 75.1859C75.2325 75.2674 75.104 75.3082 74.9723 75.3082ZM76.6257 75.3082C76.4877 75.3082 76.3874 75.2627 76.3247 75.1718C76.262 75.0777 76.2306 74.9633 76.2306 74.8284C76.2306 74.6497 76.2635 74.4757 76.3294 74.3063C76.3984 74.137 76.4877 73.9802 76.5975 73.836C76.7104 73.6886 76.8311 73.5616 76.9596 73.455C77.0631 73.3704 77.1697 73.3045 77.2795 73.2575C77.3924 73.2073 77.499 73.1822 77.5993 73.1822C77.7091 73.1822 77.7906 73.2089 77.8439 73.2622C77.9004 73.3155 77.9286 73.3798 77.9286 73.455C77.9286 73.5648 77.8831 73.6761 77.7922 73.789C77.7012 73.9018 77.5554 74.0038 77.3547 74.0947C77.1541 74.1825 76.886 74.2468 76.5504 74.2875L76.5646 74.1652C76.7809 74.1496 76.9596 74.1072 77.1008 74.0383C77.245 73.9661 77.3516 73.8862 77.4206 73.7984C77.4927 73.7106 77.5288 73.6322 77.5288 73.5632C77.5288 73.4691 77.4817 73.4221 77.3877 73.4221C77.3093 73.4221 77.2262 73.4519 77.1384 73.5115C77.0537 73.571 76.9722 73.6541 76.8938 73.7607C76.8185 73.8642 76.7558 73.9849 76.7057 74.1229C76.6586 74.2609 76.6351 74.4098 76.6351 74.5698C76.6351 74.692 76.6555 74.7892 76.6963 74.8614C76.7402 74.9303 76.8123 74.9648 76.9126 74.9648C76.9785 74.9648 77.049 74.9445 77.1243 74.9037C77.2027 74.8598 77.2811 74.7971 77.3594 74.7156C77.4378 74.634 77.51 74.5337 77.5758 74.4145L77.6652 74.471C77.5805 74.6215 77.477 74.761 77.3547 74.8896C77.2356 75.015 77.1117 75.1169 76.9832 75.1953C76.8546 75.2706 76.7354 75.3082 76.6257 75.3082ZM78.5973 75.2706L78.635 75.1765L78.8748 75.1295C78.9532 75.1138 79.016 75.0997 79.063 75.0871C79.1132 75.0746 79.1523 75.0573 79.1806 75.0354C79.2088 75.0103 79.2323 74.9805 79.2511 74.946C79.2731 74.9084 79.295 74.8614 79.317 74.8049L80.2671 72.4579C80.2828 72.4171 80.2843 72.3873 80.2718 72.3685C80.2624 72.3466 80.2295 72.3371 80.173 72.3403L79.8014 72.3544L79.8485 72.2415L80.9726 72.0628L79.8673 74.8049C79.8359 74.8802 79.8171 74.9382 79.8108 74.979C79.8077 75.0197 79.8234 75.0511 79.8579 75.073C79.8955 75.0918 79.9582 75.1107 80.046 75.1295L80.253 75.1765L80.2153 75.2706H78.5973ZM82.7944 72.0581C83.0422 72.0581 83.2256 72.1239 83.3448 72.2556C83.4639 72.3842 83.5235 72.5488 83.5235 72.7495C83.5235 72.8404 83.5109 72.9376 83.4859 73.0411C83.4608 73.1414 83.4263 73.2434 83.3824 73.3468C83.2632 73.6416 83.1111 73.9097 82.9261 74.1511C82.7411 74.3926 82.5342 74.6011 82.3053 74.7767C82.0764 74.9492 81.8334 75.0824 81.5762 75.1765C81.3222 75.2674 81.0635 75.3129 80.8001 75.3129L80.8237 75.2329C81.0839 75.1922 81.3175 75.1138 81.5245 74.9978C81.7314 74.8817 81.9165 74.7359 82.0795 74.5603C82.2426 74.3816 82.3852 74.1856 82.5075 73.9724C82.633 73.756 82.7443 73.5303 82.8415 73.2951C82.9073 73.1289 82.9544 72.9847 82.9826 72.8624C83.0108 72.7401 83.0249 72.6335 83.0249 72.5425C83.0249 72.4359 82.9983 72.3544 82.945 72.298C82.8948 72.2415 82.8274 72.2133 82.7427 72.2133C82.6173 72.2133 82.4981 72.2556 82.3852 72.3403C82.2724 72.4218 82.1736 72.53 82.0889 72.6648C82.0043 72.7997 81.9368 72.9408 81.8867 73.0881C81.8396 73.2324 81.8161 73.3688 81.8161 73.4973C81.8161 73.6165 81.8412 73.7074 81.8914 73.7701C81.9415 73.8329 82.0105 73.8642 82.0983 73.8642C82.2049 73.8642 82.3115 73.8313 82.4182 73.7654C82.5248 73.6965 82.622 73.6055 82.7098 73.4926C82.8007 73.3798 82.8713 73.2559 82.9214 73.1211L82.865 73.5068C82.8274 73.6102 82.7568 73.7043 82.6533 73.789C82.553 73.8736 82.437 73.941 82.3053 73.9912C82.1767 74.0382 82.045 74.0618 81.9102 74.0618C81.6938 74.0618 81.537 74.0038 81.4398 73.8877C81.3426 73.7717 81.294 73.629 81.294 73.4597C81.294 73.2747 81.3316 73.0991 81.4069 72.9329C81.4853 72.7636 81.5935 72.6131 81.7314 72.4814C81.8726 72.3497 82.034 72.2462 82.2159 72.171C82.3978 72.0957 82.5906 72.0581 82.7944 72.0581ZM82.9842 75.2706L83.0124 75.1953L84.1788 74.2546C84.2917 74.1637 84.4046 74.0665 84.5175 73.963C84.6335 73.8595 84.7417 73.7529 84.842 73.6432C84.9424 73.5334 85.0317 73.4221 85.1101 73.3092C85.1885 73.1963 85.2497 73.0834 85.2936 72.9706C85.3406 72.8545 85.3641 72.7432 85.3641 72.6366C85.3641 72.4986 85.3312 72.3967 85.2654 72.3309C85.2026 72.265 85.0976 72.2321 84.9502 72.2321C84.8718 72.2321 84.7934 72.2446 84.715 72.2697C84.6398 72.2948 84.5786 72.3262 84.5316 72.3638C84.4846 72.4014 84.4611 72.4422 84.4611 72.4861C84.4611 72.5269 84.4658 72.5613 84.4752 72.5896C84.4877 72.6147 84.5002 72.6413 84.5128 72.6695C84.5253 72.6946 84.5316 72.7291 84.5316 72.773C84.5316 72.842 84.5002 72.8984 84.4375 72.9423C84.378 72.9831 84.3105 73.0035 84.2353 73.0035C84.1788 73.0035 84.1255 72.9878 84.0754 72.9564C84.0252 72.9219 84.0001 72.8608 84.0001 72.773C84.0001 72.6601 84.033 72.5598 84.0989 72.472C84.1647 72.381 84.2525 72.3058 84.3623 72.2462C84.472 72.1866 84.5928 72.1412 84.7245 72.1098C84.8593 72.0785 84.9941 72.0628 85.129 72.0628C85.2857 72.0628 85.4237 72.0847 85.5429 72.1286C85.662 72.1725 85.7545 72.2368 85.8204 72.3215C85.8894 72.4061 85.9239 72.5127 85.9239 72.6413C85.9239 72.7605 85.8941 72.8781 85.8345 72.9941C85.778 73.1101 85.7012 73.223 85.604 73.3327C85.5068 73.4425 85.3971 73.5491 85.2748 73.6526C85.1556 73.756 85.0317 73.8564 84.9032 73.9536C84.7746 74.0508 84.6508 74.1433 84.5316 74.2311L83.7932 74.7908H84.8279C84.8875 74.7908 84.9361 74.7814 84.9737 74.7626C85.0145 74.7438 85.0537 74.7156 85.0913 74.6779C85.1321 74.6372 85.1776 74.5854 85.2277 74.5227L85.3124 74.4098H85.4065L84.8985 75.2706H82.9842ZM86.4334 75.3129C86.1731 75.3129 85.9756 75.2643 85.8408 75.1671C85.7091 75.0699 85.6432 74.9288 85.6432 74.7438C85.6432 74.6685 85.6652 74.5964 85.7091 74.5274C85.7561 74.4584 85.8204 74.4239 85.9019 74.4239C85.9991 74.4239 86.065 74.4475 86.0994 74.4945C86.1339 74.5415 86.1512 74.5854 86.1512 74.6262C86.1512 74.6826 86.1371 74.7281 86.1089 74.7626C86.0806 74.7971 86.0524 74.8284 86.0242 74.8567C85.996 74.8849 85.9819 74.9147 85.9819 74.946C85.9819 75.0119 86.0101 75.0621 86.0665 75.0965C86.1261 75.131 86.2029 75.1483 86.297 75.1483C86.5071 75.1483 86.6921 75.1028 86.852 75.0119C87.0119 74.9209 87.1374 74.7955 87.2283 74.6356C87.3192 74.4757 87.3647 74.2938 87.3647 74.09C87.3647 73.9708 87.3286 73.8627 87.2565 73.7654C87.1844 73.6682 87.0715 73.6181 86.9179 73.6149L86.6309 73.6996L86.5933 73.6055L86.7768 73.5303C86.8802 73.4895 86.9884 73.4378 87.1013 73.3751C87.2173 73.3092 87.3255 73.2339 87.4258 73.1493C87.5262 73.0646 87.6077 72.969 87.6704 72.8624C87.7363 72.7558 87.7692 72.6397 87.7692 72.5143C87.7692 72.4202 87.7425 72.345 87.6892 72.2885C87.6391 72.2321 87.5528 72.2039 87.4305 72.2039C87.3051 72.2039 87.2063 72.2258 87.1342 72.2697C87.0621 72.3136 87.026 72.3622 87.026 72.4155C87.026 72.4626 87.0386 72.5033 87.0637 72.5378C87.0919 72.5723 87.106 72.6194 87.106 72.6789C87.106 72.7479 87.0762 72.8028 87.0166 72.8436C86.9571 72.8843 86.8912 72.9047 86.8191 72.9047C86.7595 72.9047 86.7046 72.8859 86.6545 72.8483C86.6043 72.8075 86.5792 72.7495 86.5792 72.6742C86.5792 72.577 86.6074 72.4908 86.6639 72.4155C86.7234 72.3403 86.8034 72.276 86.9037 72.2227C87.0041 72.1694 87.1138 72.1302 87.233 72.1051C87.3521 72.0769 87.4729 72.0628 87.5952 72.0628C87.8115 72.0628 87.984 72.1114 88.1126 72.2086C88.2443 72.3058 88.3101 72.4265 88.3101 72.5708C88.3101 72.6774 88.2834 72.7746 88.2301 72.8624C88.1768 72.947 88.1047 73.0223 88.0138 73.0881C87.926 73.154 87.8288 73.212 87.7222 73.2622C87.6155 73.3092 87.5089 73.35 87.4023 73.3845L87.3976 73.3939C87.5764 73.4127 87.7175 73.4817 87.8209 73.6008C87.9275 73.72 87.9809 73.8611 87.9809 74.0241C87.9809 74.2342 87.9338 74.4192 87.8398 74.5792C87.7457 74.7391 87.6218 74.8739 87.4682 74.9837C87.3177 75.0903 87.1515 75.1718 86.9696 75.2282C86.7909 75.2847 86.6121 75.3129 86.4334 75.3129Z" fill="#1D1A19"/>
<path d="M49.0026 33.0798L48.6891 33.3129H51.0363L50.7228 33.0798C50.5406 32.9458 50.4253 32.8387 50.3771 32.7582C50.3235 32.6832 50.2967 32.5626 50.2967 32.3965C50.2967 32.2357 50.294 32.1473 50.2887 32.1312V31.9946V24.4789V24.3422C50.294 24.3262 50.2967 24.2377 50.2967 24.0769C50.2967 23.9108 50.3235 23.7903 50.3771 23.7152C50.4253 23.6348 50.5406 23.5277 50.7228 23.3937L51.181 23.0561H48.5444L49.0026 23.3937C49.1795 23.5277 49.2973 23.6348 49.3562 23.7152C49.4045 23.7956 49.4286 23.9162 49.4286 24.0769C49.434 24.1359 49.4367 24.2243 49.4367 24.3422V24.4789V31.9946V32.1312C49.4367 32.2491 49.434 32.3376 49.4286 32.3965C49.4286 32.5626 49.4045 32.6832 49.3562 32.7582C49.3134 32.8279 49.1955 32.9351 49.0026 33.0798ZM41.4869 33.0798L41.1734 33.3129H43.5205L43.207 33.0798C43.0248 32.9458 42.9096 32.8387 42.8614 32.7582C42.8078 32.6832 42.781 32.5626 42.781 32.3965V32.2197C42.7756 32.2036 42.773 32.1741 42.773 32.1312V31.9946V24.4789V24.3422C42.773 24.2993 42.7756 24.2672 42.781 24.2457V24.0769C42.781 23.9108 42.8078 23.7903 42.8614 23.7152C42.9096 23.6348 43.0248 23.5277 43.207 23.3937L43.6652 23.0561H41.0287L41.4869 23.3937C41.6636 23.5277 41.7815 23.6348 41.8405 23.7152C41.8888 23.7956 41.9128 23.9162 41.9128 24.0769C41.9183 24.1359 41.9209 24.2243 41.9209 24.3422V24.4789V31.9946V32.1312C41.9209 32.2491 41.9183 32.3376 41.9128 32.3965C41.9128 32.5626 41.8888 32.6832 41.8405 32.7582C41.7976 32.8279 41.6798 32.9351 41.4869 33.0798ZM45.0558 33.7228H40.048V33.4736C40.6214 33.3772 41.0421 33.1548 41.31 32.8065C41.5136 32.5439 41.6154 32.0322 41.6154 31.2712V25.2023C41.6154 24.7039 41.5886 24.3502 41.5351 24.1412C41.4761 23.9108 41.377 23.7232 41.2377 23.5786C40.975 23.2839 40.5785 23.0909 40.048 22.9998V22.7506H45.0558V22.9998C44.477 23.0963 44.0537 23.3187 43.7858 23.667C43.6786 23.8063 43.6009 23.9912 43.5526 24.2217C43.5044 24.452 43.4803 24.7789 43.4803 25.2023V27.8871H49.1312V25.2023C49.1312 24.7039 49.1044 24.3502 49.0508 24.1412C48.9919 23.9108 48.8927 23.7232 48.7534 23.5786C48.4908 23.2839 48.0943 23.0909 47.5637 22.9998V22.7506H52.5716V22.9998C51.9928 23.0963 51.5695 23.3187 51.3015 23.667C51.1944 23.8063 51.1166 23.9912 51.0684 24.2217C51.0202 24.452 50.996 24.7789 50.996 25.2023V31.2712C50.996 31.7106 51.0255 32.0536 51.0845 32.3001C51.1434 32.5412 51.2426 32.7395 51.3819 32.8949C51.6445 33.1896 52.041 33.3825 52.5716 33.4736V33.7228H47.5637V33.4736C48.1372 33.3772 48.5578 33.1548 48.8258 32.8065C49.0293 32.5439 49.1312 32.0322 49.1312 31.2712V28.2568H43.4803V31.2712C43.4803 31.7106 43.5098 32.0536 43.5687 32.3001C43.6277 32.5412 43.7268 32.7395 43.8661 32.8949C44.1287 33.1896 44.5253 33.3825 45.0558 33.4736V33.7228ZM61.2931 33.2004C63.2544 32.0643 64.235 30.4138 64.235 28.2488C64.235 27.5414 64.1279 26.8743 63.9135 26.2473C63.7046 25.631 63.3964 25.0656 62.9891 24.5512C62.5872 24.0582 62.1183 23.6643 61.5824 23.3696C62.756 24.3985 63.3428 26.0008 63.3428 28.1765C63.3428 28.8142 63.2866 29.4224 63.174 30.0011C63.0561 30.5853 62.8953 31.0944 62.6917 31.5284C62.5684 31.7856 62.4586 31.9812 62.3622 32.1152C62.2282 32.3028 62.0835 32.4742 61.928 32.6297C61.7673 32.8011 61.5556 32.9914 61.2931 33.2004ZM56.8801 33.1923C56.4085 32.8387 56.0146 32.4207 55.6985 31.9383C55.3769 31.4507 55.1411 30.896 54.9911 30.2745C54.8303 29.6367 54.7499 28.9427 54.7499 28.1925C54.7499 27.0725 54.9214 26.1213 55.2644 25.339C55.6074 24.5512 56.1459 23.8814 56.8801 23.3294C56.2423 23.6724 55.6985 24.0903 55.2483 24.5834C54.7875 25.0818 54.4418 25.6391 54.2114 26.2553C53.9702 26.8716 53.8497 27.5334 53.8497 28.2407C53.8497 28.9374 53.9702 29.5965 54.2114 30.2182C54.4418 30.8398 54.7875 31.4052 55.2483 31.9143C55.6985 32.4179 56.2423 32.844 56.8801 33.1923ZM55.5698 28.1925C55.5698 28.9803 55.6582 29.7091 55.8351 30.379C56.0065 31.0434 56.2611 31.6168 56.5987 32.0991C56.9363 32.5868 57.3329 32.9511 57.7884 33.1923C58.2493 33.4442 58.761 33.5701 59.3237 33.5701C60.2454 33.5701 61.0465 33.2057 61.7271 32.4769C62.1398 32.0322 62.4639 31.44 62.6997 30.7004C62.9248 29.9663 63.0374 29.1277 63.0374 28.1845C63.0374 27.37 62.9516 26.6251 62.7802 25.9499C62.6033 25.2854 62.3541 24.72 62.0325 24.2538C61.695 23.7769 61.3038 23.4178 60.859 23.1767C60.3981 22.9248 59.881 22.7988 59.3076 22.7988C58.7449 22.7988 58.2332 22.9248 57.7723 23.1767C57.3115 23.4339 56.9175 23.7983 56.5907 24.2699C56.2692 24.7361 56.0173 25.3095 55.8351 25.99C55.6582 26.6653 55.5698 27.3994 55.5698 28.1925ZM53.5442 28.2488C53.5442 27.4771 53.6942 26.7349 53.9943 26.0222C54.2891 25.3202 54.707 24.6986 55.2483 24.1574C55.7735 23.6321 56.3897 23.2196 57.0971 22.9195C57.7991 22.6301 58.5359 22.4854 59.3076 22.4854C60.3472 22.4854 61.3091 22.7426 62.1933 23.257C63.0722 23.7822 63.7715 24.4842 64.2913 25.363C64.8057 26.2473 65.063 27.2092 65.063 28.2488C65.063 29.0151 64.9183 29.7493 64.6289 30.4513C64.3288 31.1586 63.9135 31.7776 63.383 32.3081C62.8524 32.8387 62.2389 33.254 61.5423 33.5541C60.8456 33.8541 60.1087 34.0042 59.3317 34.0042C58.2761 34.0042 57.3061 33.747 56.4219 33.2325C55.5323 32.7181 54.8303 32.0188 54.3159 31.1345C53.8014 30.2556 53.5442 29.2938 53.5442 28.2488ZM67.386 23.048H66.2848L66.1723 24.2297C66.4134 23.876 66.609 23.6295 66.759 23.4902C66.9305 23.3241 67.1395 23.1767 67.386 23.048ZM70.1753 33.0798L69.8538 33.3129H72.209L71.8955 33.0798C71.7079 32.9351 71.5873 32.8253 71.5338 32.7502C71.4855 32.6752 71.4614 32.5573 71.4614 32.3965V32.1312V32.0428C71.456 32.0322 71.4534 32.0161 71.4534 31.9946V24.4789C71.4534 24.4575 71.456 24.4414 71.4614 24.4306V24.3422V24.0769C71.4614 23.9162 71.4909 23.7903 71.5499 23.6992C71.5981 23.6295 71.7133 23.5277 71.8955 23.3937L72.3537 23.0561H69.8779L70.2557 23.3937C70.3897 23.5116 70.4808 23.6187 70.529 23.7152C70.5772 23.8171 70.6013 23.9376 70.6013 24.0769V24.3422C70.6066 24.3744 70.6094 24.4199 70.6094 24.4789V31.9946C70.6094 32.0536 70.6066 32.0991 70.6013 32.1312V32.3965C70.6013 32.5573 70.5772 32.6779 70.529 32.7582C70.47 32.8387 70.3521 32.9458 70.1753 33.0798ZM75.995 24.1172L75.8423 23.048H74.6767C74.9768 23.1767 75.2153 23.3107 75.3921 23.45C75.5797 23.6 75.7806 23.8224 75.995 24.1172ZM66.0195 22.7506H76.4532L76.7023 25.7409H76.4451C76.2843 25.1889 76.0674 24.712 75.794 24.3101C75.51 23.9028 75.1885 23.592 74.8295 23.3776C74.465 23.1633 74.0792 23.0561 73.6719 23.0561C73.3611 23.0561 73.0878 23.1204 72.852 23.249C72.6109 23.3883 72.4367 23.5705 72.3296 23.7956C72.2224 24.0207 72.1688 24.3744 72.1688 24.8566V31.2712C72.1688 31.7481 72.2009 32.0964 72.2653 32.3162C72.3296 32.5412 72.4528 32.7368 72.635 32.9029C72.9565 33.1923 73.4335 33.3825 74.0658 33.4736V33.7228H68.3988V33.4736C69.0955 33.3772 69.6046 33.1575 69.9261 32.8145C70.0654 32.6645 70.1646 32.4742 70.2236 32.2438C70.2771 32.0294 70.3039 31.7053 70.3039 31.2712V24.8566C70.3039 24.3262 70.2315 23.9403 70.0869 23.6992C69.9797 23.5062 69.8109 23.3481 69.5805 23.2249C69.3554 23.1123 69.0955 23.0561 68.8007 23.0561C68.2006 23.0561 67.6486 23.2946 67.1449 23.7715C66.6465 24.2431 66.2714 24.8995 66.0195 25.7409H65.7703L66.0195 22.7506ZM89.3221 33.3531C89.9438 33.2084 90.4745 33.0074 90.9142 32.7502C91.3478 32.4984 91.7664 32.1554 92.1677 31.7213C93.052 30.7246 93.4941 29.543 93.4941 28.1765C93.4941 27.3458 93.3389 26.5849 93.0277 25.8936C92.7063 25.1809 92.2618 24.5834 91.6935 24.1011C91.1094 23.6134 90.4368 23.2651 89.6764 23.0561C89.9383 23.1794 90.2119 23.3347 90.4956 23.5223C90.7481 23.6992 90.973 23.8921 91.1714 24.1011C91.3587 24.3047 91.5273 24.5191 91.6778 24.7441C92.2939 25.6819 92.602 26.7966 92.602 28.088C92.602 28.7632 92.5166 29.4197 92.3449 30.0574C92.1787 30.679 91.9318 31.2257 91.6049 31.6972C91.3266 32.1044 91.013 32.4313 90.665 32.6779C90.2949 32.9405 89.8473 33.1656 89.3221 33.3531ZM84.2258 33.0798L83.9123 33.3129C84.3787 33.2646 84.7997 33.2406 85.1744 33.2406C85.5765 33.2406 85.9379 33.2593 86.2601 33.2968L85.9465 33.0798C85.7858 32.9726 85.6761 32.8708 85.6165 32.7743C85.5522 32.6779 85.5201 32.5519 85.5201 32.3965C85.5146 32.3376 85.5123 32.2491 85.5123 32.1312V31.9946V24.4789V24.3422C85.5123 24.2243 85.5146 24.1359 85.5201 24.0769C85.5201 23.9108 85.5467 23.7903 85.6008 23.7152C85.6487 23.6348 85.7639 23.5277 85.9465 23.3937L86.3722 23.0802C85.8689 23.1231 85.4613 23.1445 85.1509 23.1445C84.7965 23.1445 84.3952 23.1257 83.9444 23.0883L83.8002 23.0802L84.2258 23.3937C84.414 23.5277 84.5292 23.6295 84.5716 23.6992C84.6256 23.7849 84.6523 23.9108 84.6523 24.0769C84.6523 24.1466 84.6546 24.1948 84.6601 24.2217V24.3422V24.4789V31.9946V32.1312V32.2438C84.6546 32.2706 84.6523 32.3215 84.6523 32.3965C84.6523 32.5626 84.628 32.6832 84.5802 32.7582C84.5371 32.8279 84.4187 32.9351 84.2258 33.0798ZM86.2358 24.72L86.2194 30.9336C86.2194 31.6142 86.2813 32.1152 86.4044 32.4367C86.5274 32.7315 86.7289 32.9538 87.0072 33.1039C87.2918 33.2646 87.6288 33.3451 88.02 33.3451C88.6362 33.3451 89.2045 33.2164 89.7243 32.9592C90.2283 32.7181 90.6838 32.3536 91.0906 31.866C91.4818 31.3837 91.7766 30.8237 91.9749 30.186C92.1787 29.5269 92.2806 28.8302 92.2806 28.0961C92.2806 27.1101 92.1011 26.2312 91.7421 25.4595C91.383 24.6825 90.879 24.0716 90.2307 23.6268C89.5824 23.1874 88.8612 22.9677 88.0686 22.9677C87.4415 22.9677 86.9805 23.107 86.6858 23.3857C86.3855 23.6697 86.2358 24.1145 86.2358 24.72ZM82.763 33.7228L82.7874 33.4736C83.3604 33.3772 83.7814 33.1548 84.0495 32.8065C84.2533 32.5439 84.3544 32.0322 84.3544 31.2712V25.2023C84.3544 24.7415 84.3309 24.3958 84.2823 24.1654C84.2235 23.935 84.1216 23.7393 83.9773 23.5786C83.7147 23.2839 83.3181 23.0909 82.7874 22.9998V22.7506C83.0555 22.7614 83.1597 22.7667 83.1009 22.7667L84.0416 22.8149C84.3466 22.8311 84.6735 22.8391 85.0223 22.8391C85.6541 22.8391 86.3346 22.8069 87.0636 22.7426C87.7119 22.689 88.216 22.6622 88.575 22.6622C89.4373 22.6622 90.215 22.7935 90.9056 23.0561C91.5915 23.3187 92.1975 23.6992 92.7227 24.1975C93.2315 24.6852 93.6258 25.2719 93.9041 25.9579C94.1832 26.6331 94.3219 27.3807 94.3219 28.2006C94.3219 29.0151 94.1801 29.7707 93.8963 30.4674C93.6125 31.1586 93.2025 31.7508 92.6663 32.2438C92.1301 32.7315 91.4951 33.1093 90.7614 33.3772C90.0268 33.6397 89.2045 33.7711 88.2936 33.7711C87.9667 33.7711 87.436 33.7389 86.7022 33.6746C86.1872 33.6264 85.6863 33.6023 85.1987 33.6023C84.8075 33.6023 84.4273 33.613 84.0573 33.6344L82.9645 33.7148C82.8783 33.7148 82.8116 33.7175 82.763 33.7228ZM103.14 33.2004C105.102 32.0643 106.082 30.4138 106.082 28.2488C106.082 27.5414 105.975 26.8743 105.761 26.2473C105.552 25.631 105.244 25.0656 104.836 24.5512C104.435 24.0582 103.966 23.6643 103.43 23.3696C104.603 24.3985 105.19 26.0008 105.19 28.1765C105.19 28.8142 105.134 29.4224 105.021 30.0011C104.903 30.5853 104.743 31.0944 104.539 31.5284C104.416 31.7856 104.306 31.9812 104.21 32.1152C104.075 32.3028 103.93 32.4742 103.775 32.6297C103.615 32.8011 103.403 32.9914 103.14 33.2004ZM98.7268 33.1923C98.2557 32.8387 97.8613 32.4207 97.5454 31.9383C97.224 31.4507 96.9881 30.896 96.8383 30.2745C96.6776 29.6367 96.5969 28.9427 96.5969 28.1925C96.5969 27.0725 96.7686 26.1213 97.1111 25.339C97.4545 24.5512 97.993 23.8814 98.7268 23.3294C98.0895 23.6724 97.5454 24.0903 97.0955 24.5834C96.6345 25.0818 96.2888 25.6391 96.0583 26.2553C95.8177 26.8716 95.6969 27.5334 95.6969 28.2407C95.6969 28.9374 95.8177 29.5965 96.0583 30.2182C96.2888 30.8398 96.6345 31.4052 97.0955 31.9143C97.5454 32.4179 98.0895 32.844 98.7268 33.1923ZM97.4169 28.1925C97.4169 28.9803 97.5054 29.7091 97.6818 30.379C97.8535 31.0434 98.1083 31.6168 98.4461 32.0991C98.7832 32.5868 99.1799 32.9511 99.6354 33.1923C100.096 33.4442 100.608 33.5701 101.171 33.5701C102.092 33.5701 102.893 33.2057 103.575 32.4769C103.987 32.0322 104.311 31.44 104.547 30.7004C104.772 29.9663 104.884 29.1277 104.884 28.1845C104.884 27.37 104.799 26.6251 104.627 25.9499C104.45 25.2854 104.201 24.72 103.879 24.2538C103.542 23.7769 103.15 23.4178 102.706 23.1767C102.245 22.9248 101.728 22.7988 101.155 22.7988C100.592 22.7988 100.081 22.9248 99.6197 23.1767C99.1587 23.4339 98.7644 23.7983 98.4375 24.2699C98.1161 24.7361 97.8645 25.3095 97.6818 25.99C97.5054 26.6653 97.4169 27.3994 97.4169 28.1925ZM95.3912 28.2488C95.3912 27.4771 95.5409 26.7349 95.8412 26.0222C96.1359 25.3202 96.5538 24.6986 97.0955 24.1574C97.6207 23.6321 98.2368 23.2196 98.9439 22.9195C99.6463 22.6301 100.383 22.4854 101.155 22.4854C102.194 22.4854 103.156 22.7426 104.04 23.257C104.919 23.7822 105.618 24.4842 106.139 25.363C106.653 26.2473 106.91 27.2092 106.91 28.2488C106.91 29.0151 106.765 29.7493 106.476 30.4513C106.176 31.1586 105.761 31.7776 105.23 32.3081C104.699 32.8387 104.086 33.254 103.39 33.5541C102.693 33.8541 101.956 34.0042 101.179 34.0042C100.123 34.0042 99.1532 33.747 98.269 33.2325C97.3792 32.7181 96.6776 32.0188 96.1626 31.1345C95.6483 30.2556 95.3912 29.2938 95.3912 28.2488ZM113.059 33.6907C112.459 33.4817 111.971 33.262 111.596 33.0316C111.221 32.8011 110.865 32.501 110.527 32.1312C110.072 31.6114 109.724 31.0139 109.482 30.3387C109.236 29.6689 109.112 28.9589 109.112 28.2086C109.112 27.5709 109.201 26.9466 109.378 26.3357C109.554 25.7248 109.812 25.1863 110.149 24.72C110.514 24.2002 111.079 23.6697 111.846 23.1285C111.085 23.4982 110.436 23.9456 109.9 24.4709C109.365 24.9906 108.962 25.5828 108.694 26.2473C108.422 26.9064 108.284 27.6138 108.284 28.3694C108.284 29.2964 108.486 30.1511 108.887 30.9336C109.278 31.7106 109.841 32.3402 110.576 32.8226C111.309 33.3049 112.137 33.5942 113.059 33.6907ZM119.225 28.6426H116.556L117.031 28.9964C117.207 29.1303 117.325 29.2375 117.384 29.3179C117.432 29.3983 117.456 29.5188 117.456 29.6796C117.456 29.7493 117.459 29.7975 117.464 29.8243V29.9449V30.0815V31.3033C117.464 31.732 117.419 32.067 117.328 32.3081C117.231 32.5439 117.049 32.7958 116.781 33.0637C117.285 32.8547 117.796 32.7181 118.316 32.6537V30.0815V29.9449C118.316 29.827 118.319 29.7386 118.324 29.6796C118.324 29.5188 118.354 29.3929 118.413 29.3018C118.461 29.2214 118.573 29.1196 118.75 28.9964L119.225 28.6426ZM117.625 22.8873L118.55 25.7891H118.308C118.04 25.2746 117.756 24.8272 117.456 24.4467C117.156 24.0609 116.856 23.7608 116.556 23.5465C115.935 23.0856 115.195 22.8551 114.338 22.8551C113.705 22.8551 113.11 22.9864 112.553 23.249C111.98 23.517 111.481 23.8974 111.058 24.3904C110.27 25.2961 109.876 26.4429 109.876 27.8308C109.876 28.8972 110.08 29.8565 110.487 30.7085C110.894 31.5606 111.457 32.2331 112.175 32.7261C112.888 33.2138 113.684 33.4576 114.563 33.4576C115.109 33.4576 115.591 33.3665 116.009 33.1843C116.432 33.0074 116.733 32.7663 116.91 32.4608C117.076 32.1822 117.159 31.7213 117.159 31.0783V30.8049C117.159 30.328 117.127 29.9744 117.063 29.7439C116.993 29.5081 116.872 29.3072 116.7 29.1411C116.374 28.8356 115.894 28.6561 115.262 28.6025V28.3533H120.213V28.6025C119.79 28.6989 119.469 28.9213 119.249 29.2696C119.099 29.5322 119.024 30.044 119.024 30.8049V32.2679L119.514 33.0074C119.466 33.0021 119.38 32.9994 119.257 32.9994C118.828 32.9994 118.431 33.0342 118.067 33.1039C117.655 33.1843 117.161 33.3156 116.588 33.4978C115.988 33.6907 115.495 33.8166 115.109 33.8755C114.712 33.9452 114.276 33.98 113.799 33.98C112.052 33.98 110.682 33.4924 109.691 32.5171C109.15 31.9705 108.73 31.3328 108.429 30.604C108.124 29.8699 107.971 29.1222 107.971 28.3613C107.971 27.5629 108.127 26.8099 108.437 26.1026C108.748 25.3899 109.18 24.7655 109.731 24.2297C110.283 23.6938 110.926 23.2731 111.661 22.9677C112.4 22.6676 113.178 22.5176 113.992 22.5176C114.48 22.5176 115.039 22.5684 115.672 22.6703C115.763 22.6756 115.878 22.6917 116.018 22.7185C116.345 22.7774 116.593 22.823 116.765 22.8551C116.947 22.8927 117.105 22.9114 117.239 22.9114C117.277 22.9114 117.314 22.9087 117.352 22.9033C117.39 22.898 117.448 22.8953 117.528 22.8953C117.577 22.8953 117.609 22.8927 117.625 22.8873Z" fill="#1D1A19"/>
<path d="M48.4674 63.6228C48.4674 64.7328 48.0337 65.677 47.166 66.4553C46.3112 67.2336 45.2457 67.6227 43.9698 67.6227C42.6812 67.6227 41.603 67.2336 40.7355 66.4553C39.8806 65.677 39.4531 64.7328 39.4531 63.6228V59.2018H42.5919V65.3453C42.5919 66.3915 43.0512 66.9146 43.9698 66.9146C44.8757 66.9146 45.3287 66.3915 45.3287 65.3453V60.5798C45.3287 59.2783 45.0161 58.1364 44.391 57.1539L40.4675 51.0487C39.7912 49.9897 39.4531 48.8159 39.4531 47.5272V43.7951C39.4531 42.6851 39.8806 41.7409 40.7355 40.9627C41.603 40.1843 42.6812 39.7952 43.9698 39.7952C45.2457 39.7952 46.3112 40.1843 47.166 40.9627C48.0337 41.7409 48.4674 42.6851 48.4674 43.7951V48.2162H45.3287V42.0727C45.3287 41.0264 44.8757 40.5033 43.9698 40.5033C43.0512 40.5033 42.5919 41.0264 42.5919 42.0727V46.6659C42.5919 47.9546 42.9045 49.0902 43.5297 50.0726L47.4531 56.1778C48.1293 57.2368 48.4674 58.4171 48.4674 59.7185V63.6228ZM46.8981 47.5272V43.1636C46.8981 42.1173 46.4324 41.2943 45.501 40.6947C45.9093 41.1795 46.1134 41.8239 46.1134 42.6277V47.5272H46.8981ZM46.8981 64.2544V60.1395C46.8981 58.8254 46.5728 57.6643 45.922 56.6563L41.9986 50.5702C41.3479 49.5623 41.0225 48.4012 41.0225 47.087V43.0487C41.0225 42.2959 41.1948 41.6708 41.5393 41.1731C40.6717 41.7601 40.2378 42.5448 40.2378 43.5272V47.2784C40.2378 48.5925 40.5632 49.76 41.2139 50.7808L45.1373 56.8477C45.7881 57.8557 46.1134 59.0168 46.1134 60.331V64.8094C46.1134 65.6005 45.9093 66.2384 45.501 66.7233C46.4324 66.1236 46.8981 65.3006 46.8981 64.2544ZM41.5393 66.2639C41.1948 65.7663 41.0225 65.1347 41.0225 64.3692V59.9099H40.2378V63.9099C40.2378 64.8796 40.6717 65.6643 41.5393 66.2639ZM61.4626 67.4314H56.3525V66.7233H57.3478V53.2879H54.2091V66.7233H55.1851V67.4314H50.0942V66.7233H51.0703V40.6947H50.0942V39.9865H55.1851V40.6947H54.2091V52.5798H57.3478V40.6947H56.3525V39.9865H61.4626V40.6947H60.4674V66.7233H61.4626V67.4314ZM58.9171 66.7233V40.6947H58.1324V66.7233H58.9171ZM52.6397 66.7233V40.6947H51.855V66.7233H52.6397ZM72.4482 67.4314H62.6492V66.7233H63.6253V40.6947H62.6492V39.9865H72.4482V48.2162H69.3095V40.6947H66.764V52.5798H70.4769V53.2879H66.764V66.7233H69.3095V59.2018H72.4482V67.4314ZM70.8788 47.5272V40.6947H70.0941V47.5272H70.8788ZM65.1946 66.7233V40.6947H64.41V66.7233H65.1946ZM70.8788 66.7233V59.9099H70.0941V66.7233H70.8788ZM83.6058 67.4314H74.0176V66.7233H74.9936V40.6947H74.0176V39.9865H79.1084V40.6947H78.1323V66.7233H80.4865V59.2018H83.6058V67.4314ZM76.563 66.7233V40.6947H75.7783V66.7233H76.563ZM82.0559 66.7233V59.9099H81.2712V66.7233H82.0559ZM96.5632 48.2162H93.6728V40.6947H92.2571V66.7233H93.2331V67.4314H88.1423V66.7233H89.1183V40.6947H87.7017V48.2162H84.8114V39.9865H96.5632V48.2162ZM95.2234 47.5272V40.6947H94.4576V47.5272H95.2234ZM86.3808 47.5272V40.6947H85.5961V47.5272H86.3808ZM90.6877 66.7233V40.6947H89.903V66.7233H90.6877ZM107.548 67.4314H97.7492V66.7233H98.7252V40.6947H97.7492V39.9865H107.548V48.2162H104.409V40.6947H101.864V52.5798H105.577V53.2879H101.864V66.7233H104.409V59.2018H107.548V67.4314ZM105.979 47.5272V40.6947H105.194V47.5272H105.979ZM100.295 66.7233V40.6947H99.5099V66.7233H100.295ZM105.979 66.7233V59.9099H105.194V66.7233H105.979ZM120.276 67.4314H118.917C117.08 67.4314 116.161 66.4745 116.161 64.5606V54.8573C116.161 54.4235 116.007 54.0535 115.702 53.7472C115.395 53.441 115.025 53.2879 114.592 53.2879H113.232V66.7233H114.208V67.4314H109.118V66.7233H110.094V40.6947H109.118V39.9865H114.592C115.893 39.9865 117.003 40.3821 117.922 41.1731C118.841 41.9514 119.3 42.8892 119.3 43.9865V49.288C119.3 50.9977 118.387 52.2098 116.563 52.9243C118.387 53.6898 119.3 54.9084 119.3 56.5798V65.6706C119.3 66.3724 119.599 66.7233 120.199 66.7233H120.276V67.4314ZM117.731 49.9195V43.3741C117.731 42.3151 117.265 41.4921 116.333 40.9052C116.741 41.3773 116.946 42.0152 116.946 42.8191V50.4554C116.946 51.2592 116.741 51.9036 116.333 52.3884C117.265 51.7887 117.731 50.9658 117.731 49.9195ZM116.161 51.0104V42.264C116.161 41.8302 116.007 41.4602 115.702 41.154C115.395 40.8478 115.025 40.6947 114.592 40.6947H113.232V52.5798H114.592C115.025 52.5798 115.395 52.4267 115.702 52.1205C116.007 51.8142 116.161 51.4442 116.161 51.0104ZM111.663 66.7233V40.6947H110.878V66.7233H111.663ZM118.515 66.9146C117.992 66.6212 117.731 66.0598 117.731 65.2305V55.9482C117.731 54.9019 117.265 54.079 116.333 53.4793C116.741 53.9641 116.946 54.6021 116.946 55.3932V64.8859C116.946 66.0598 117.469 66.736 118.515 66.9146Z" fill="#1D1A19"/>
</g>
<path d="M108.181 11.7729H47.8191C27.9035 11.7729 11.7588 27.9177 11.7588 47.8332C11.7588 67.7488 27.9035 83.8935 47.8191 83.8935H108.181C128.096 83.8935 144.241 67.7488 144.241 47.8332C144.241 27.9177 128.096 11.7729 108.181 11.7729Z" stroke="#1D1A19" stroke-width="2"/>
</svg>
