<svg width="25" height="25" viewBox="0 0 25 25" fill="none" xmlns="http://www.w3.org/2000/svg">
<path d="M8.24219 11.1475L7.24219 11.1475L7.24219 13.1475L8.24219 13.1475L8.24219 11.1475ZM8.24219 13.1475L17.2512 13.1475L17.2512 11.1475L8.24219 11.1475L8.24219 13.1475Z" fill="#F9E4D9"/>
<path d="M13.1059 5.98304L13.0154 4.83463L11.3749 4.85879L11.4654 6.0072L13.1059 5.98304ZM18.3817 13.2381C18.8106 13.0837 19.0332 12.4598 18.8789 11.8446C18.7247 11.2294 18.2519 10.8559 17.8231 11.0103L18.3817 13.2381ZM12.2856 5.99512C11.4654 6.0072 11.4655 6.00801 11.4655 6.00883C11.4655 6.00911 11.4656 6.00994 11.4657 6.01051C11.4657 6.01165 11.4658 6.01282 11.4659 6.01402C11.4661 6.01643 11.4664 6.01897 11.4666 6.02164C11.467 6.02697 11.4676 6.03283 11.4682 6.03921C11.4694 6.05195 11.4709 6.06676 11.4728 6.08356C11.4765 6.11716 11.4818 6.15875 11.489 6.20785C11.5034 6.30606 11.5257 6.43426 11.5602 6.58847C11.6291 6.8974 11.7461 7.30845 11.9433 7.78944C12.3401 8.7575 13.0462 9.9714 14.289 11.197L15.151 9.36688C14.1206 8.35076 13.6096 7.42126 13.3575 6.80634C13.2302 6.49584 13.1648 6.2555 13.1325 6.11092C13.1163 6.03837 13.1083 5.98928 13.1051 5.96689C13.1034 5.95569 13.1029 5.95116 13.1032 5.95371C13.1034 5.95498 13.1037 5.95803 13.1042 5.9629C13.1044 5.96533 13.1047 5.96823 13.105 5.97158C13.1051 5.97326 13.1053 5.97505 13.1054 5.97696C13.1055 5.97791 13.1056 5.9789 13.1057 5.97991C13.1057 5.98042 13.1058 5.9812 13.1058 5.98145C13.1058 5.98224 13.1059 5.98304 12.2856 5.99512ZM14.289 11.197C15.5068 12.3979 16.4611 12.9387 17.1554 13.1617C17.502 13.273 17.7789 13.3036 17.9856 13.3C18.0887 13.2982 18.1733 13.2879 18.2396 13.2755C18.2726 13.2692 18.301 13.2625 18.3248 13.256C18.3366 13.2527 18.3473 13.2496 18.3568 13.2465C18.3615 13.245 18.366 13.2436 18.3702 13.2422C18.3722 13.2415 18.3742 13.2408 18.3762 13.2401C18.3771 13.2398 18.3781 13.2394 18.379 13.2391C18.3795 13.2389 18.3802 13.2387 18.3804 13.2386C18.3811 13.2384 18.3817 13.2381 18.1024 12.1242C17.8231 11.0103 17.8237 11.0101 17.8244 11.0098C17.8246 11.0097 17.8253 11.0095 17.8257 11.0094C17.8266 11.009 17.8274 11.0088 17.8282 11.0085C17.8299 11.0079 17.8315 11.0073 17.833 11.0068C17.8361 11.0058 17.8389 11.0048 17.8415 11.004C17.8467 11.0024 17.8508 11.0012 17.854 11.0003C17.8604 10.9986 17.8627 10.9982 17.861 10.9985C17.8577 10.9991 17.838 11.0026 17.8015 11.0032C17.7291 11.0045 17.5867 10.9947 17.3718 10.9257C16.9432 10.788 16.2063 10.4076 15.151 9.36688L14.289 11.197Z" fill="#F9E4D9"/>
<path d="M13.1059 18.3334L13.0153 19.4818L11.3748 19.4576L11.4654 18.3092L13.1059 18.3334ZM18.3822 11.079C18.811 11.2334 19.0336 11.8573 18.8792 12.4725C18.7249 13.0877 18.2521 13.4612 17.8233 13.3067L18.3822 11.079ZM12.2856 18.3213C11.4654 18.3092 11.4654 18.3084 11.4655 18.3075C11.4655 18.3073 11.4656 18.3064 11.4656 18.3059C11.4657 18.3047 11.4658 18.3036 11.4659 18.3024C11.4661 18.2999 11.4663 18.2974 11.4666 18.2947C11.467 18.2894 11.4676 18.2835 11.4682 18.2772C11.4694 18.2644 11.4709 18.2496 11.4728 18.2328C11.4765 18.1992 11.4818 18.1576 11.489 18.1085C11.5034 18.0103 11.5257 17.8821 11.5602 17.7279C11.6292 17.419 11.7462 17.008 11.9434 16.527C12.3403 15.5589 13.0465 14.3451 14.2893 13.1197L15.1511 14.9498C14.1207 15.9658 13.6096 16.8953 13.3575 17.5101C13.2302 17.8206 13.1649 18.061 13.1326 18.2055C13.1164 18.2781 13.1083 18.3272 13.1051 18.3495C13.1034 18.3607 13.103 18.3653 13.1032 18.3627C13.1034 18.3615 13.1037 18.3584 13.1042 18.3535C13.1044 18.3511 13.1047 18.3482 13.105 18.3449C13.1051 18.3432 13.1053 18.3414 13.1054 18.3395C13.1055 18.3385 13.1056 18.3375 13.1057 18.3365C13.1057 18.336 13.1058 18.3352 13.1058 18.335C13.1058 18.3342 13.1059 18.3334 12.2856 18.3213ZM14.2893 13.1197C15.5072 11.9188 16.4615 11.3782 17.1559 11.1553C17.5024 11.044 17.7794 11.0135 17.986 11.0171C18.0891 11.0189 18.1738 11.0291 18.24 11.0416C18.2731 11.0478 18.3015 11.0546 18.3252 11.0611C18.3371 11.0643 18.3477 11.0675 18.3572 11.0705C18.362 11.072 18.3664 11.0735 18.3706 11.0749C18.3727 11.0756 18.3747 11.0763 18.3766 11.077C18.3776 11.0773 18.3785 11.0777 18.3794 11.078C18.3799 11.0782 18.3806 11.0784 18.3808 11.0785C18.3815 11.0787 18.3822 11.079 18.1027 12.1928C17.8233 13.3067 17.824 13.307 17.8246 13.3072C17.8248 13.3073 17.8255 13.3075 17.8259 13.3077C17.8268 13.308 17.8276 13.3083 17.8285 13.3086C17.8301 13.3091 17.8317 13.3097 17.8333 13.3102C17.8363 13.3113 17.8392 13.3122 17.8417 13.313C17.8469 13.3146 17.8511 13.3158 17.8542 13.3167C17.8606 13.3185 17.863 13.3188 17.8613 13.3185C17.858 13.3179 17.8382 13.3144 17.8017 13.3138C17.7294 13.3125 17.5869 13.3223 17.372 13.3913C16.9434 13.5289 16.2065 13.9092 15.1511 14.9498L14.2893 13.1197Z" fill="#F9E4D9"/>
</svg>
