<svg width="13" height="16" viewBox="0 0 13 16" fill="none" xmlns="http://www.w3.org/2000/svg">
<g id="Group 1">
<path id="Line 2" d="M1.48822 6.82275L0.48822 6.82275L0.48822 8.82275L1.48822 8.82275L1.48822 6.82275ZM1.48822 8.82275L10.4973 8.82275L10.4973 6.82275L1.48822 6.82275L1.48822 8.82275Z" fill="#1D1A19"/>
<path id="Line 3" d="M6.35194 1.65833L6.26141 0.509926L4.62089 0.534084L4.71142 1.68249L6.35194 1.65833ZM11.6278 8.91342C12.0566 8.75901 12.2792 8.13511 12.125 7.51991C11.9707 6.90471 11.498 6.53117 11.0691 6.68559L11.6278 8.91342ZM5.53168 1.67041C4.71142 1.68249 4.71148 1.6833 4.71155 1.68412C4.71157 1.68441 4.71164 1.68523 4.71168 1.6858C4.71178 1.68694 4.71187 1.68811 4.71197 1.68932C4.71217 1.69172 4.71239 1.69426 4.71262 1.69693C4.71308 1.70227 4.71361 1.70813 4.71422 1.7145C4.71543 1.72725 4.71694 1.74205 4.71882 1.75885C4.72258 1.79245 4.7278 1.83405 4.735 1.88314C4.74941 1.98136 4.77176 2.10956 4.80619 2.26376C4.87517 2.5727 4.99216 2.98374 5.18933 3.46473C5.58615 4.43279 6.29228 5.6467 7.53504 6.87227L8.397 5.04217C7.36663 4.02605 6.85559 3.09655 6.60352 2.48163C6.47624 2.17113 6.41086 1.93079 6.37858 1.78621C6.36238 1.71366 6.35437 1.66457 6.35109 1.64218C6.34944 1.63098 6.34898 1.62645 6.34926 1.629C6.34941 1.63027 6.34974 1.63332 6.3502 1.63819C6.35043 1.64063 6.3507 1.64352 6.35099 1.64687C6.35113 1.64855 6.35129 1.65034 6.35144 1.65225C6.35152 1.65321 6.3516 1.65419 6.35169 1.6552C6.35173 1.65571 6.35179 1.65649 6.35181 1.65675C6.35187 1.65753 6.35194 1.65833 5.53168 1.67041ZM7.53504 6.87227C8.75284 8.07323 9.70718 8.61396 10.4015 8.83699C10.748 8.94832 11.025 8.97885 11.2316 8.97526C11.3347 8.97348 11.4193 8.96323 11.4856 8.95077C11.5187 8.94454 11.5471 8.93778 11.5708 8.93128C11.5827 8.92803 11.5933 8.92485 11.6028 8.92184C11.6076 8.92033 11.612 8.91887 11.6162 8.91746C11.6183 8.91676 11.6203 8.91607 11.6222 8.9154C11.6232 8.91506 11.6241 8.91473 11.625 8.9144C11.6255 8.91423 11.6262 8.91399 11.6264 8.9139C11.6271 8.91366 11.6278 8.91342 11.3484 7.7995C11.0691 6.68559 11.0698 6.68535 11.0704 6.68511C11.0706 6.68503 11.0713 6.6848 11.0717 6.68465C11.0726 6.68434 11.0734 6.68404 11.0743 6.68375C11.0759 6.68317 11.0775 6.68262 11.0791 6.6821C11.0821 6.68106 11.085 6.68014 11.0875 6.67932C11.0927 6.67768 11.0969 6.67647 11.1001 6.6756C11.1064 6.67386 11.1088 6.67349 11.1071 6.67381C11.1038 6.67443 11.084 6.67787 11.0475 6.6785C10.9752 6.67976 10.8327 6.67003 10.6178 6.601C10.1892 6.4633 9.45232 6.0829 8.397 5.04217L7.53504 6.87227Z" fill="#1D1A19"/>
<path id="Line 4" d="M6.35195 14.0092L6.26136 15.1576L4.62082 15.1334L4.71141 13.985L6.35195 14.0092ZM11.6282 6.75474C12.0571 6.9092 12.2796 7.53312 12.1253 8.1483C11.9709 8.76348 11.4982 9.13697 11.0693 8.98251L11.6282 6.75474ZM5.53168 13.9971C4.71141 13.985 4.71147 13.9841 4.71154 13.9833C4.71156 13.983 4.71163 13.9822 4.71167 13.9816C4.71177 13.9805 4.71186 13.9793 4.71196 13.9781C4.71216 13.9757 4.71238 13.9732 4.71261 13.9705C4.71307 13.9652 4.7136 13.9593 4.71421 13.9529C4.71542 13.9402 4.71694 13.9254 4.71881 13.9086C4.72257 13.875 4.7278 13.8334 4.735 13.7843C4.74942 13.6861 4.77177 13.5579 4.80621 13.4037C4.87521 13.0948 4.99222 12.6837 5.18942 12.2028C5.5863 11.2347 6.2925 10.0209 7.53533 8.79546L8.39717 10.6256C7.36676 11.6416 6.85567 12.571 6.60358 13.1859C6.47628 13.4964 6.41089 13.7367 6.3786 13.8813C6.36239 13.9539 6.35438 14.0029 6.3511 14.0253C6.34945 14.0365 6.34899 14.0411 6.34927 14.0385C6.34942 14.0372 6.34975 14.0342 6.35021 14.0293C6.35044 14.0269 6.35071 14.024 6.351 14.0206C6.35114 14.019 6.3513 14.0172 6.35145 14.0153C6.35153 14.0143 6.35161 14.0133 6.3517 14.0123C6.35174 14.0118 6.3518 14.011 6.35182 14.0108C6.35188 14.01 6.35195 14.0092 5.53168 13.9971ZM7.53533 8.79546C8.75321 7.59462 9.70758 7.05399 10.4019 6.83104C10.7485 6.71974 11.0254 6.68925 11.2321 6.69285C11.3351 6.69465 11.4198 6.70491 11.486 6.71738C11.5191 6.72361 11.5475 6.73038 11.5712 6.73688C11.5831 6.74013 11.5938 6.74331 11.6033 6.74632C11.608 6.74783 11.6125 6.74929 11.6166 6.7507C11.6187 6.7514 11.6207 6.75209 11.6226 6.75277C11.6236 6.7531 11.6246 6.75344 11.6255 6.75377C11.6259 6.75393 11.6266 6.75417 11.6269 6.75426C11.6275 6.7545 11.6282 6.75474 11.3488 7.86863C11.0693 8.98251 11.07 8.98275 11.0707 8.98298C11.0709 8.98306 11.0715 8.9833 11.072 8.98345C11.0728 8.98375 11.0737 8.98405 11.0745 8.98434C11.0762 8.98492 11.0778 8.98547 11.0793 8.98599C11.0824 8.98703 11.0852 8.98796 11.0878 8.98878C11.0929 8.99041 11.0971 8.99162 11.1003 8.9925C11.1066 8.99424 11.109 8.99461 11.1073 8.99429C11.104 8.99367 11.0842 8.99023 11.0478 8.98959C10.9754 8.98833 10.833 8.99804 10.6181 9.06704C10.1894 9.20469 9.45254 9.58501 8.39717 10.6256L7.53533 8.79546Z" fill="#1D1A19"/>
</g>
</svg>
